<?xml version="1.0" encoding="UTF-8"?>
<svg version="1.1" xmlns="http://www.w3.org/2000/svg" width="200" height="200">
<path d="M0 0 C10.56 0 21.12 0 32 0 C35.44634549 13.78538195 35.44634549 13.78538195 36.80932617 20.24707031 C36.96828275 20.99193066 37.12723932 21.736791 37.29101276 22.50422287 C37.79363493 24.86177603 38.29338393 27.21992657 38.79296875 29.578125 C39.1074329 31.05521676 39.42208933 32.5322676 39.73693848 34.00927734 C40.88944351 39.42235858 42.03825881 44.83622488 43.1875 50.25 C45.765625 62.3775 48.34375 74.505 51 87 C78.06 87.33 105.12 87.66 133 88 C133 66.55 133 45.1 133 23 C105.94 23 78.88 23 51 23 C50.01 18.38 49.02 13.76 48 9 C80.67 9 113.34 9 147 9 C147 39.69 147 70.38 147 102 C111.36 102 75.72 102 39 102 C37.43763472 97.31290416 36.23670974 92.80554084 35.26000977 87.9909668 C35.01808395 86.82163353 35.01808395 86.82163353 34.77127075 85.62867737 C34.4233766 83.94625217 34.07696994 82.26351883 33.73190498 80.58051109 C33.18535581 77.91976357 32.63271643 75.2603516 32.07810974 72.60127258 C30.50224863 65.04468345 28.93050646 57.48730032 27.37963867 49.92553711 C26.42911834 45.29320157 25.46576965 40.66369725 24.4938488 36.03580666 C24.12579207 34.27089077 23.76263012 32.50494698 23.40439034 30.73801231 C22.9048597 28.27664931 22.38911727 25.81922446 21.86938477 23.36206055 C21.72435013 22.62702301 21.57931549 21.89198547 21.42988586 21.13467407 C20.9816497 18.9120056 20.9816497 18.9120056 20 16 C17.40742331 15.13580777 15.65962293 14.82419068 12.98828125 14.68359375 C12.23095703 14.64169922 11.47363281 14.59980469 10.69335938 14.55664062 C9.51483398 14.49766602 9.51483398 14.49766602 8.3125 14.4375 C7.51521484 14.39431641 6.71792969 14.35113281 5.89648438 14.30664062 C3.93118553 14.20072632 1.96561504 14.09987449 0 14 C0 9.38 0 4.76 0 0 Z " fill="#000000" transform="translate(25,37)"/>
<path d="M0 0 C3.50290345 3.06504052 4.82221283 4.89376872 5.5625 9.5 C4.9051093 13.59043104 3.59081908 15.79957644 1 19 C-2.47263273 20.73631636 -6.21193013 20.60190402 -10 20 C-12.75569447 17.81840855 -14.43588747 16.12822506 -16 13 C-16.37510464 9.74909308 -16.66540869 7.15611549 -14.98828125 4.2421875 C-10.7332745 -1.0478209 -6.42273473 -2.01179045 0 0 Z " fill="#000000" transform="translate(80,149)"/>
<path d="M0 0 C3.05064675 2.6595382 3.87469691 4.54055535 4.9375 8.4375 C5.01017815 12.58015449 4.30512729 14.58205264 2 18 C-0.95118888 20.40467242 -4.29107729 20.41186021 -8.03125 20.328125 C-11.14316604 19.80947233 -12.85067869 18.21445226 -15 16 C-16.73765543 12.52468913 -16.59585352 8.7911999 -16 5 C-11.55230673 -0.76998045 -6.97778123 -2.02580745 0 0 Z " fill="#000000" transform="translate(159,149)"/>
<path d="M0 0 C7.26 0 14.52 0 22 0 C25 10.625 25 10.625 25 14 C16.75 14 8.5 14 0 14 C0 9.38 0 4.76 0 0 Z " fill="#000000" transform="translate(25,125)"/>
<path d="M0 0 C5.28 0 10.56 0 16 0 C16.99 4.62 17.98 9.24 19 14 C12.73 14 6.46 14 0 14 C0 9.38 0 4.76 0 0 Z " fill="#000000" transform="translate(25,97)"/>
</svg>
