<?xml version="1.0" encoding="UTF-8"?>
<svg version="1.1" xmlns="http://www.w3.org/2000/svg" width="512" height="512">
<path d="M0 0 C3.5837122 1.90622989 4.69943153 3.16908063 6.078125 6.98046875 C7.36665251 11.82928527 7.50416849 16.76294622 7.8125 21.75 C8.63385062 32.6259645 10.66631489 42.63087956 14 53 C14.21108398 53.67015137 14.42216797 54.34030273 14.63964844 55.03076172 C20.44037166 73.01836646 30.0535542 89.68046675 41 105 C41.73839111 106.03688965 41.73839111 106.03688965 42.49169922 107.09472656 C45.74403315 111.64941297 49.02946481 116.17938207 52.32666016 120.70166016 C55.60511477 125.2046324 58.85918696 129.72524772 62.11767578 134.24267578 C64.85544399 138.03628711 67.59928208 141.82521272 70.35546875 145.60546875 C77.13846584 154.92231562 83.74920732 164.3166911 90 174 C90.65097656 175.00546875 91.30195313 176.0109375 91.97265625 177.046875 C102.18074311 193.22889359 111.26259308 210.07637038 118 228 C118.30244629 228.80163574 118.60489258 229.60327148 118.91650391 230.42919922 C133.94219195 271.01859119 140.8137076 320.47582552 130 363 C129.77505859 363.90331055 129.55011719 364.80662109 129.31835938 365.73730469 C123.28950354 389.42921336 113.51540819 412.20879921 99 432 C98.60425781 432.54092285 98.20851563 433.0818457 97.80078125 433.63916016 C93.41218053 439.59921752 88.9650832 445.35909375 83.57421875 450.4609375 C81.94160051 452.05709528 80.51138588 453.7364767 79.0625 455.5 C75.73113389 459.44503881 71.95709869 462.69782182 68 466 C67.19820313 466.68964844 66.39640625 467.37929688 65.5703125 468.08984375 C39.64756161 489.97418389 8.33043582 504.05774848 -25 510 C-25.90008789 510.17515137 -26.80017578 510.35030273 -27.72753906 510.53076172 C-37.60481529 512.28550445 -47.37525646 512.39812241 -57.375 512.375 C-58.25950836 512.37445618 -59.14401672 512.37391235 -60.05532837 512.37335205 C-74.05098777 512.33383013 -87.3875135 511.48354121 -101 508 C-101.90186035 507.77505859 -102.8037207 507.55011719 -103.73291016 507.31835938 C-127.42684765 501.29004375 -150.20719368 491.51658573 -170 477 C-170.54092285 476.60425781 -171.0818457 476.20851563 -171.63916016 475.80078125 C-177.59921752 471.41218053 -183.35909375 466.9650832 -188.4609375 461.57421875 C-190.05709528 459.94160051 -191.7364767 458.51138588 -193.5 457.0625 C-197.44503881 453.73113389 -200.69782182 449.95709869 -204 446 C-204.68964844 445.19820313 -205.37929687 444.39640625 -206.08984375 443.5703125 C-227.98224259 417.63801581 -242.03516104 386.33417745 -248 353 C-248.17587646 352.12093994 -248.35175293 351.24187988 -248.53295898 350.33618164 C-250.43022754 339.86113332 -250.35242515 329.41991679 -250.3125 318.8125 C-250.31100952 317.83878448 -250.30951904 316.86506897 -250.3079834 315.86184692 C-250.26543992 300.39745084 -249.63195342 285.27207122 -247 270 C-246.85546387 269.14841309 -246.71092773 268.29682617 -246.56201172 267.41943359 C-240.78293043 234.6329071 -228.11215776 200.14870524 -202 178 C-189.65279054 169.3603086 -189.65279054 169.3603086 -183 170 C-178.91577657 172.27773999 -175.78890299 174.24710751 -174.44091797 178.95092773 C-174.29283691 179.68770752 -174.14475586 180.4244873 -173.9921875 181.18359375 C-168.81340555 205.54078691 -160.10143701 231.24018118 -138.95703125 246.13671875 C-133.62327562 249.49761893 -127.97302693 252.00899102 -122 254 C-122.01047363 253.17725586 -122.02094727 252.35451172 -122.03173828 251.50683594 C-122.59490568 200.08038554 -118.99689302 145.9883282 -94.01367188 99.89355469 C-92.9495125 97.90568858 -91.93286292 95.89819904 -90.921875 93.8828125 C-80.16029783 72.63383846 -66.01823328 52.9382615 -49.55859375 35.734375 C-47.00241383 33.07671043 -47.00241383 33.07671043 -44.89453125 30.34765625 C-43.13727417 28.17010676 -41.39350928 26.47228149 -39.25 24.6875 C-36.49819044 22.34745756 -33.96975489 19.94617667 -31.5 17.3125 C-23.21112499 8.85718172 -12.44592302 -1.50729172 0 0 Z M-16.671875 34.609375 C-17.35765625 35.31578125 -18.0434375 36.0221875 -18.75 36.75 C-20.96150872 38.99686143 -23.07479557 41.05837703 -25.5625 43 C-29.16179194 45.95326518 -31.99754923 49.45370909 -35 53 C-36.24136719 54.42699219 -36.24136719 54.42699219 -37.5078125 55.8828125 C-83.73220447 109.25082205 -98.75000005 171.33409019 -100.2109375 240.5625 C-100.24922201 242.2845876 -100.28755248 244.00667418 -100.32592773 245.72875977 C-100.40201142 249.16143893 -100.46460643 252.59402727 -100.51977539 256.02709961 C-100.55314919 257.63135601 -100.58690579 259.2356045 -100.62109375 260.83984375 C-100.633647 261.94023987 -100.633647 261.94023987 -100.64645386 263.06286621 C-100.75041112 267.38201751 -101.24189125 271.03476777 -103 275 C-111.30404398 279.3229876 -123.46067584 276.64221524 -132.1875 274.375 C-152.51871134 267.94487855 -165.8643154 254.66025473 -177 237 C-177.46792969 236.32582031 -177.93585938 235.65164062 -178.41796875 234.95703125 C-183.82936219 226.76014842 -186.82433107 217.40884485 -190.13378906 208.22314453 C-190.97184965 206.07224833 -191.93355637 204.04586639 -193 202 C-218.01241635 224.73856032 -226.21023653 267.39802705 -227.87109375 299.484375 C-229.6429676 354.55683912 -216.47859625 399.2988445 -178.57836914 440.2980957 C-173.77089436 445.38019662 -168.59134383 449.79325146 -163 454 C-161.95457031 454.79921875 -160.90914063 455.5984375 -159.83203125 456.421875 C-150.26267323 463.58250524 -139.40262189 471.19912604 -128 475 C-129.50945434 470.99471522 -131.38579091 467.28731513 -133.375 463.5 C-145.25673913 440.15218248 -145.86294434 412.01374063 -138.96484375 386.9609375 C-134.55011789 373.41291238 -128.49355661 360.68383059 -116 353 C-112.89951072 351.44975536 -110.42105782 351.71007985 -107 352 C-101.59687728 355.12549868 -100.55480317 359.14041966 -98.9375 364.8125 C-97.19856549 370.72098057 -95.25869323 375.75105112 -92 381 C-90.38476018 378.12389665 -89.71715814 375.89690634 -89.5078125 372.61328125 C-89.4135498 371.34218506 -89.4135498 371.34218506 -89.31738281 370.04541016 C-89.25389648 369.1435498 -89.19041016 368.24168945 -89.125 367.3125 C-86.86531901 340.5421976 -77.21247602 316.65497122 -60 296 C-59.2575 295.0925 -58.515 294.185 -57.75 293.25 C-52.41314784 286.9982589 -45.88416647 279.61839553 -37.69921875 277.3671875 C-34.12876237 277.1654668 -32.05082689 277.9675573 -29.0625 279.875 C-26.08548351 282.94222911 -25.85187027 284.96061037 -25.45703125 289.15209961 C-23.5554844 308.42095823 -14.52033752 323.82611713 -3.12109375 339.1015625 C17.52659647 367.31626995 31.35657496 400.63878239 26.22802734 436.21655273 C24.17934656 448.74240809 20.15242859 460.60919081 13.00390625 471.1796875 C12.67261719 471.78039062 12.34132813 472.38109375 12 473 C12.33 473.66 12.66 474.32 13 475 C54.77561068 454.2951917 88.34984128 419.72272609 103.48681641 375.05517578 C120.89059955 321.06224907 111.30337092 262.19389907 86.24609375 212.25 C79.95084785 199.98898594 72.85926438 188.32242944 65 177 C64.57525391 176.38753418 64.15050781 175.77506836 63.71289062 175.14404297 C57.38368436 166.04078755 50.87641441 157.07637758 44.28710938 148.16015625 C30.17112802 129.05932339 16.18521824 110.0038421 5 89 C4.37351562 87.84113281 3.74703125 86.68226562 3.1015625 85.48828125 C-5.45725897 69.09944625 -10.75186338 51.16392192 -14 33 C-15.26669503 32.88441462 -15.26669503 32.88441462 -16.671875 34.609375 Z M-45 312 C-63.58086508 334.51291537 -67.82835912 360.65727716 -69.10449219 388.94091797 C-69.20799653 391.18240419 -69.32223405 393.42315503 -69.4375 395.6640625 C-69.52837891 397.63560303 -69.52837891 397.63560303 -69.62109375 399.64697266 C-69.96734154 402.71099792 -70.26658352 404.49315659 -72 407 C-76.91579624 410.27719749 -82.25557415 409.5246051 -88 409 C-99.67553357 406.13003644 -106.82149757 398.9572387 -113 389 C-113.33 388.34 -113.66 387.68 -114 387 C-114.66 387 -115.32 387 -116 387 C-116.65003625 389.20709983 -117.29484745 391.41573892 -117.9375 393.625 C-118.29714844 394.85476563 -118.65679687 396.08453125 -119.02734375 397.3515625 C-124.44410793 417.66986671 -122.46059358 440.76592354 -111.98046875 459 C-108.79052655 463.83210179 -105.11063079 467.93822221 -101 472 C-100.31292969 472.70898438 -99.62585938 473.41796875 -98.91796875 474.1484375 C-87.32577261 485.37501706 -71.88363576 490.5450304 -55.92675781 490.34960938 C-39.46144085 489.76746248 -25.3853307 482.68389707 -14 471 C-13.30390625 470.33613281 -12.6078125 469.67226563 -11.890625 468.98828125 C1.29693535 455.57070531 5.48960924 437.93938226 5.35205078 419.70849609 C4.68944056 391.54527685 -7.7989987 370.08335995 -23.6953125 347.6953125 C-31.50424051 336.66393256 -38.70139136 324.89582591 -43 312 C-43.66 312 -44.32 312 -45 312 Z " fill="#000000" transform="translate(314,0)"/>
</svg>
