<?xml version="1.0" encoding="UTF-8"?>
<svg version="1.1" xmlns="http://www.w3.org/2000/svg" width="512" height="512">
<path d="M0 0 C3.13137008 2.71657507 6.35939707 5.31399788 9.57568359 7.92871094 C19.17755912 15.73873067 28.72424998 23.61279799 38.14941406 31.63525391 C42.04776223 34.94461652 46.02438041 38.14108742 50.03271484 41.31542969 C53.02051152 43.72830185 55.94140181 46.21542173 58.86083984 48.70996094 C63.31723164 52.51490259 67.85255671 56.18544506 72.48583984 59.77246094 C78.25573787 64.24526263 83.78673856 68.94803905 89.27294922 73.76318359 C92.77176194 76.82785717 96.31435238 79.78870212 99.98583984 82.64746094 C119.65393744 98.28441126 131.40498779 119.88699084 134.40319061 144.78561592 C134.88691374 150.86996225 134.76781621 156.99024105 134.77197266 163.09057617 C134.77660763 164.67991754 134.7816332 166.2692578 134.78701782 167.8585968 C134.80008231 172.16077981 134.80657563 176.46294725 134.81102848 180.76514697 C134.81397012 183.46089111 134.81807703 186.15663109 134.82253265 188.85237312 C134.83619473 197.30939253 134.8458665 205.76640233 134.84973454 214.223432 C134.85420592 223.9429202 134.8717164 233.6622671 134.90073514 243.38171238 C134.92245504 250.92178262 134.93244436 258.46181342 134.93377566 266.00191456 C134.93481676 270.49214539 134.94057408 274.9822432 134.95859528 279.47244072 C134.97525432 283.70541039 134.9771465 287.9381496 134.96845627 292.17114067 C134.9676952 293.71045557 134.97190296 295.24978379 134.98191452 296.78906631 C135.15375816 324.89662087 126.96494772 349.59362771 107.04833984 370.02636719 C85.21357731 390.8138228 60.29337752 393.93832696 31.48901367 393.78857422 C27.78771546 393.77241455 24.08749678 393.78853976 20.38623047 393.80761719 C17.99625414 393.80563577 15.60627847 393.80179421 13.21630859 393.79589844 C12.12851608 393.80197113 11.04072357 393.80804382 9.91996765 393.81430054 C-3.50965315 393.69281468 -14.67028195 390.49724823 -24.67822266 381.29199219 C-36.25383117 369.04439142 -37.67616344 355.72812441 -37.69412041 339.59604263 C-37.69781917 336.92056234 -37.71464057 334.24544127 -37.73487854 331.57003784 C-37.78995626 323.96912345 -37.82091545 316.36815782 -37.84545898 308.76708984 C-37.86142525 304.10112533 -37.89173391 299.43541859 -37.93022346 294.76958847 C-37.94178906 293.00357698 -37.94780307 291.23751924 -37.94790459 289.47146988 C-37.94922261 272.64733474 -40.0690573 259.36944211 -51.97119141 246.72949219 C-59.75245472 239.22478428 -68.42694992 235.5044561 -79.26416016 234.95996094 C-91.88556783 235.42220994 -101.12790745 240.74329219 -109.57666016 249.64746094 C-119.72085234 261.52553273 -120.67740434 274.17983515 -120.69412041 289.16831398 C-120.69782021 291.8398684 -120.71464497 294.5110634 -120.73487854 297.18254089 C-120.78994217 304.77242307 -120.82089315 312.36235678 -120.84545898 319.95239258 C-120.8614405 324.6118776 -120.89176608 329.27110539 -120.93022346 333.93045616 C-120.94177736 335.69285007 -120.94780296 337.45529016 -120.94790459 339.21772194 C-120.94914949 355.0614756 -122.27256484 368.48591204 -133.49462891 380.68652344 C-144.71427719 391.2905804 -156.72198433 393.71061677 -171.70166016 393.69824219 C-172.86938965 393.70252731 -174.03711914 393.70681244 -175.24023438 393.71122742 C-177.70442052 393.71694867 -180.16862355 393.71748732 -182.6328125 393.71313477 C-186.35007584 393.70999396 -190.06652731 393.73339658 -193.78369141 393.75878906 C-211.22557441 393.80579257 -227.46630019 393.30258661 -243.38916016 385.39746094 C-244.77167969 384.73423828 -244.77167969 384.73423828 -246.18212891 384.05761719 C-266.26520133 373.83196254 -281.1018948 355.58258237 -288.38916016 334.39746094 C-292.36062839 321.3291837 -293.54103271 309.29545191 -293.55029297 295.7043457 C-293.55492794 294.11500434 -293.55995351 292.52566407 -293.56533813 290.93632507 C-293.57840262 286.63414207 -293.58489594 282.33197463 -293.58934879 278.0297749 C-293.59229043 275.33403077 -293.59639734 272.63829078 -293.60085297 269.94254875 C-293.61451504 261.48552934 -293.62418681 253.02851954 -293.62805486 244.57148987 C-293.63252623 234.85200168 -293.65003671 225.13265477 -293.67905545 215.4132095 C-293.70077535 207.87313926 -293.71076468 200.33310846 -293.71209598 192.79300731 C-293.71313707 188.30277648 -293.71889439 183.81267868 -293.73691559 179.32248116 C-293.75357463 175.08951148 -293.75546681 170.85677227 -293.74677658 166.6237812 C-293.74601551 165.08446631 -293.75022327 163.54513809 -293.76023483 162.00585556 C-293.93399597 133.58466699 -285.52987339 109.02494889 -265.51416016 88.27246094 C-261.67145155 84.53586263 -257.55771357 81.17431133 -253.38134766 77.81933594 C-250.15308003 75.20637781 -246.98705379 72.52910497 -243.82666016 69.83496094 C-239.27812363 65.96574698 -234.66406934 62.19966172 -229.98291016 58.49121094 C-226.90836667 56.00935053 -223.89736971 53.4589758 -220.88916016 50.89746094 C-216.31493826 47.00247385 -211.67755976 43.20972578 -206.96728516 39.47949219 C-203.97948848 37.06662002 -201.05859819 34.57950014 -198.13916016 32.08496094 C-193.68276836 28.28001928 -189.14744329 24.60947682 -184.51416016 21.02246094 C-178.74111961 16.54722318 -173.21251258 11.83647419 -167.71606445 7.02734375 C-163.54594738 3.38373186 -159.32358646 -0.16300506 -154.96337891 -3.57910156 C-153.00825923 -5.11590277 -151.07954971 -6.67238843 -149.15869141 -8.25097656 C-101.08846951 -47.43057374 -44.65508952 -39.11933462 0 0 Z M-125.38916016 29.39746094 C-127.01683058 30.78163347 -128.64729212 32.16246658 -130.27807617 33.54296875 C-131.39406228 34.48785326 -132.5091345 35.4338182 -133.62329102 36.38085938 C-137.62302272 39.7744272 -141.69884928 43.05884378 -145.81103516 46.31542969 C-148.79883184 48.72830185 -151.71972213 51.21542173 -154.63916016 53.70996094 C-159.09555195 57.51490259 -163.63087702 61.18544506 -168.26416016 64.77246094 C-174.03669486 69.24730657 -179.56675187 73.95569837 -185.06005859 78.76757812 C-189.24018474 82.42327653 -193.5020829 85.93820077 -197.86572266 89.37402344 C-200.92293546 91.82547272 -203.90635284 94.35642318 -206.88916016 96.89746094 C-210.67805047 100.12389494 -214.48775183 103.30673486 -218.38916016 106.39746094 C-220.05768406 107.7284694 -221.72419957 109.0619978 -223.38916016 110.39746094 C-223.9104248 110.81495605 -224.43168945 111.23245117 -224.96875 111.66259766 C-237.0661641 121.41427224 -246.77498566 131.41544497 -249.38916016 147.39746094 C-249.69473423 152.64888426 -249.68363193 157.89591487 -249.6796875 163.15405273 C-249.68567894 164.74988619 -249.69248589 166.34571677 -249.70004272 167.94154358 C-249.71764973 172.26000244 -249.72239593 176.57838195 -249.7236743 180.89687324 C-249.72509974 183.60063286 -249.72937683 186.30437256 -249.73466873 189.00812721 C-249.75315321 198.45717261 -249.76134154 207.90616173 -249.75976562 217.35522461 C-249.75856545 226.13595525 -249.77964755 234.9164396 -249.81125295 243.69710797 C-249.83748744 251.25750648 -249.84812989 258.81782492 -249.84685481 266.37826854 C-249.84634717 270.88405422 -249.85191939 275.38962097 -249.87321091 279.89536095 C-249.89271405 284.13823415 -249.89263619 288.38068234 -249.87817764 292.6235714 C-249.87610315 294.17101672 -249.88070828 295.71848951 -249.89289856 297.26588821 C-250.00541489 312.55203979 -246.9864982 325.76027207 -236.58056641 337.42480469 C-229.32719573 344.31626082 -219.55118437 349.53705378 -209.43701172 349.51098633 C-208.456297 349.5109108 -207.47558228 349.51083527 -206.46514893 349.51075745 C-205.41397888 349.50559616 -204.36280884 349.50043488 -203.27978516 349.49511719 C-202.19783875 349.49370224 -201.11589233 349.49228729 -200.00115967 349.49082947 C-196.54713165 349.48523412 -193.09316857 349.47268244 -189.63916016 349.45996094 C-187.29671318 349.45494534 -184.95426518 349.45038254 -182.61181641 349.44628906 C-176.87090885 349.43526621 -171.13003914 349.41853268 -165.38916016 349.39746094 C-165.38036079 348.00709373 -165.38036079 348.00709373 -165.37138367 346.58863831 C-165.3130609 337.77880123 -165.24076431 328.96920709 -165.15344524 320.15960789 C-165.10904702 315.63238425 -165.06972719 311.10524432 -165.04272461 306.57788086 C-165.01638228 302.19453888 -164.9757719 297.81152456 -164.92597389 293.4283886 C-164.90951116 291.77062041 -164.89787063 290.11279583 -164.89154625 288.45495796 C-164.77480462 260.62074825 -157.87807704 236.18775501 -138.38916016 215.39746094 C-121.58201276 199.39684848 -100.38043682 191.27765404 -77.28369141 191.36621094 C-54.92042155 191.96959983 -35.19672251 201.32788899 -19.12353516 216.54199219 C-2.87118583 233.78611873 5.62014808 256.83227581 5.81616211 280.37402344 C5.82606171 281.12621658 5.8359613 281.87840973 5.84616089 282.65339661 C5.87744295 285.1097207 5.90239979 287.56606406 5.92724609 290.02246094 C5.94784448 291.73739083 5.96884165 293.45231597 5.99021912 295.16723633 C6.04514215 299.65846894 6.09468141 304.14974508 6.14306641 308.64105225 C6.19350022 313.23307116 6.24907153 317.82502765 6.30419922 322.41699219 C6.41141611 331.41042832 6.51294047 340.40391889 6.61083984 349.39746094 C13.3876445 349.49958106 20.1642479 349.56922626 26.94165039 349.6171875 C29.24315812 349.63719921 31.54461567 349.66441724 33.84594727 349.69921875 C37.17004846 349.74819792 40.4934726 349.77053494 43.81787109 349.78808594 C44.83291214 349.80873108 45.84795319 349.82937622 46.89375305 349.85064697 C58.94017764 349.85436006 68.71285224 345.43261338 77.61083984 337.39746094 C83.55194048 330.81838977 87.17570788 323.88602829 89.61083984 315.39746094 C89.7870647 314.824281 89.96328955 314.25110106 90.14485455 313.66055202 C90.76072059 310.66955434 90.74703044 307.83244302 90.75801086 304.77784729 C90.7635259 303.78192539 90.7635259 303.78192539 90.76915234 302.76588386 C90.78016042 300.54223826 90.7840282 298.31863944 90.7878418 296.0949707 C90.79410889 294.49972893 90.80075591 292.90448861 90.80775452 291.30924988 C90.82877762 286.06913262 90.83915901 280.82901514 90.84912109 275.58886719 C90.85317007 273.78134585 90.85728703 271.97382466 90.86147118 270.16630363 C90.8805233 261.66870231 90.89475122 253.17110964 90.90308315 244.67349106 C90.91283956 234.88596112 90.93911715 225.09865829 90.97958404 215.31120831 C91.00982983 207.73391523 91.02456024 200.15668691 91.02786416 192.57933468 C91.03020606 188.0600612 91.03905303 183.54103032 91.06432533 179.02182198 C91.087758 174.76260541 91.09177889 170.50378854 91.08156395 166.244524 C91.08107206 164.69062463 91.08728887 163.13670456 91.10112 161.58286667 C91.23279204 145.89850636 88.10429006 132.25689936 76.98193359 120.65527344 C71.34916505 115.24582207 65.22262652 110.43252805 59.04321289 105.66967773 C53.84014947 101.64267363 48.8878508 97.361818 43.94018555 93.02734375 C39.7548581 89.36757486 35.48801226 85.84842833 31.11865234 82.40917969 C28.14843668 80.02653005 25.25483135 77.55888467 22.36083984 75.08496094 C17.90454591 71.2799109 13.3691168 67.60947204 8.73583984 64.02246094 C2.96330514 59.5476153 -2.56675187 54.83922351 -8.06005859 50.02734375 C-12.24099405 46.37093757 -16.5023128 42.85391309 -20.86962891 39.42089844 C-23.33941628 37.43741028 -25.74740656 35.39713882 -28.15063477 33.33422852 C-45.19961832 18.71904014 -62.04633443 7.63987512 -85.35449219 9.19042969 C-101.53721404 10.83705173 -113.41384533 19.07900473 -125.38916016 29.39746094 Z " fill="#000000" transform="translate(335.38916015625,76.6025390625)"/>
</svg>
