<?xml version="1.0" encoding="UTF-8"?>
<svg version="1.1" xmlns="http://www.w3.org/2000/svg" width="512" height="512">
<path d="M0 0 C1.13824219 -0.03996094 2.27648437 -0.07992187 3.44921875 -0.12109375 C16.18305267 1.72009761 23.92740041 11.46189543 32.4375 20.25 C33.78788488 21.62550606 35.13943834 22.99986591 36.4921875 24.37304688 C39.77925781 27.71479106 43.05008792 31.07168593 46.3125 34.4375 C50.01593455 32.64189537 52.99998985 30.43154386 56.21484375 27.875 C62.71183322 23.42268692 69.69752615 23.64859867 77.3125 24.4375 C84.73952781 26.56942387 89.55951527 30.7429867 93.3125 37.4375 C96.56333005 44.1528825 96.62134361 52.33789895 94.3671875 59.3984375 C92.05970393 64.23109176 89.37227438 67.95769339 85.3125 71.4375 C86.93658521 75.63782893 90.05185864 78.34317399 93.23828125 81.3828125 C94.43989442 82.55423501 95.64105158 83.72612541 96.84179688 84.8984375 C98.72578354 86.72696249 100.61332687 88.55132138 102.50952148 90.3671875 C118.01947171 105.25738994 118.01947171 105.25738994 119.9765625 116.125 C119.88499664 123.88978479 119.12882271 130.13923184 114.3125 136.4375 C110.47668015 140.14958372 106.40782926 142.80671102 101.3125 144.4375 C98.98395679 144.33577622 96.65796835 144.17032864 94.3359375 143.96875 C81.27548829 143.48590218 69.01467735 148.94583536 56.89703369 153.24517822 C52.96418148 154.63469209 49.01972051 155.99083881 45.07588768 157.34880829 C42.0158397 158.40261527 38.95894702 159.46386753 35.90689087 160.54064941 C34.2777626 161.11124084 34.2777626 161.11124084 32.61572266 161.69335938 C31.6610611 162.03089233 30.70639954 162.36842529 29.72280884 162.71618652 C27.3125 163.4375 27.3125 163.4375 24.3125 163.4375 C24.3125 164.0975 24.3125 164.7575 24.3125 165.4375 C26.10188995 165.79063011 26.10188995 165.79063011 27.9274292 166.15089417 C34.58901605 167.63700857 41.00801992 169.86007187 47.47363281 172.02319336 C48.8854273 172.49188768 50.29734694 172.96020514 51.7093811 173.42817688 C55.52040244 174.69256649 59.32951033 175.96262703 63.13817692 177.23408961 C66.32373817 178.29697702 69.51021668 179.35709947 72.69669032 180.41724783 C80.21257332 182.91787036 87.72689366 185.42314674 95.24023438 187.93139648 C102.98452832 190.51666094 110.73135427 193.09422572 118.47947049 195.6680097 C125.14354901 197.88198396 131.80606614 200.10060983 138.467345 202.32299334 C142.44093377 203.64864575 146.41508022 204.97255857 150.39072418 206.29203606 C154.12555366 207.53182374 157.85839528 208.77742104 161.58979416 210.02749443 C162.95767713 210.48468392 164.32624276 210.93983685 165.69553757 211.3927803 C167.56720657 212.01226628 169.4361707 212.63990666 171.30499268 213.26792908 C172.35059986 213.61653457 173.39620705 213.96514006 174.4734993 214.32430935 C178.86421784 216.04593866 182.30227185 217.87615018 184.96875 221.81640625 C185.42701172 222.48091797 185.88527344 223.14542969 186.35742188 223.83007812 C187.07768555 224.90418945 187.07768555 224.90418945 187.8125 226 C188.87389606 227.54372835 189.93643425 229.08667192 191 230.62890625 C191.54527344 231.42441895 192.09054687 232.21993164 192.65234375 233.03955078 C195.31271191 236.88221785 198.06335818 240.65810127 200.8125 244.4375 C205.20248078 250.49576594 209.55879162 256.57643269 213.875 262.6875 C214.36355469 263.3784375 214.85210937 264.069375 215.35546875 264.78125 C216.26358375 266.06986011 217.16825117 267.36090926 218.06884766 268.65478516 C219.24002981 270.33361752 220.42997399 271.99931643 221.62109375 273.6640625 C224.11319776 277.75042243 223.92000083 279.7293686 223.3125 284.4375 C220.19589995 288.62549355 216.05579547 289.8980195 211.265625 291.453125 C210.49442322 291.71381775 209.72322144 291.9745105 208.9286499 292.24310303 C206.47684525 293.06906757 204.0199337 293.87845645 201.5625 294.6875 C199.89416684 295.24630905 198.22619338 295.80619324 196.55859375 296.3671875 C192.48062361 297.73644579 188.39799549 299.09087001 184.3125 300.4375 C184.30885437 301.73153748 184.30520874 303.02557495 184.30145264 304.35882568 C184.26454165 316.54269931 184.20681158 328.72631928 184.12859726 340.90999985 C184.08905637 347.17406018 184.05690025 353.43797854 184.04150391 359.70214844 C184.02638102 365.74530757 183.99201293 371.78807655 183.94419098 377.83106232 C183.92933209 380.13874169 183.92145642 382.44647674 183.92061615 384.7542038 C183.91825835 387.98206887 183.89127347 391.20884528 183.85839844 394.43652344 C183.8634288 395.39461914 183.86845917 396.35271484 183.87364197 397.33984375 C183.7727255 403.72705613 183.7727255 403.72705613 181.72065735 406.89480591 C178.69812467 408.83107611 175.62863564 410.02718955 172.23608398 411.12158203 C171.5101687 411.36657818 170.78425343 411.61157433 170.03634071 411.8639946 C167.56819735 412.69398907 165.09474331 413.50688817 162.62109375 414.3203125 C160.81809128 414.92293152 159.01548683 415.52674244 157.21324158 416.13162231 C153.17044665 417.48681747 149.12549008 418.83532122 145.07928467 420.18029785 C137.80906059 422.60063711 130.55090765 425.05635564 123.29345703 427.51464844 C110.92973913 431.70121983 98.55875292 435.86570236 86.18223 440.01426315 C79.0011479 442.4217089 71.8221518 444.83505037 64.64770508 447.26220703 C58.2635978 449.42197994 51.87603327 451.57113372 45.48405355 453.70750058 C42.13718459 454.82648281 38.79216886 455.95036815 35.45131111 457.08718491 C31.76084638 458.34273269 28.06265584 459.57440265 24.36352539 460.80419922 C23.28569794 461.17493561 22.20787048 461.545672 21.09738159 461.92764282 C8.03871536 466.21535996 -1.26810755 463.72940423 -13.88989258 459.4362793 C-15.50842824 458.89801165 -17.12739848 458.3610493 -18.74676514 457.82528687 C-23.12084614 456.37388333 -27.48849204 454.90395831 -31.8550818 453.43019462 C-36.43376905 451.88802678 -41.01783839 450.36201866 -45.60124207 448.8339386 C-53.29185603 446.26732024 -60.97858558 443.68934671 -68.6628418 441.10375977 C-77.54288712 438.11588968 -86.42770136 435.1425943 -95.31547624 432.17780179 C-104.78954402 429.01737876 -114.26052904 425.84780354 -123.73037505 422.67475533 C-126.45559941 421.76219821 -129.1813384 420.85119226 -131.90717506 419.94046593 C-136.18962197 418.50904646 -140.46992725 417.07139289 -144.74865723 415.62890244 C-146.31811673 415.10079489 -147.88825378 414.57469599 -149.45911217 414.05076408 C-151.60447812 413.3348017 -153.74723239 412.61150475 -155.88948059 411.88627625 C-157.08865018 411.48345271 -158.28781977 411.08062918 -159.52332783 410.66559887 C-167.03027238 407.75195523 -167.03027238 407.75195523 -168.6875 404.4375 C-168.79080902 403.04407835 -168.8339348 401.64594519 -168.84571838 400.24874878 C-168.8555072 399.37092743 -168.86529602 398.49310608 -168.87538147 397.58868408 C-168.88113693 396.62339783 -168.8868924 395.65811157 -168.89282227 394.66357422 C-168.90272186 393.64891083 -168.91262146 392.63424744 -168.92282104 391.58883667 C-168.95449669 388.22331097 -168.97921745 384.85777113 -169.00390625 381.4921875 C-169.02447054 379.16333644 -169.04546687 376.83448916 -169.06687927 374.50564575 C-169.12215416 368.36703545 -169.17153953 362.22839117 -169.21972656 356.08972168 C-169.26990208 349.82931483 -169.32560873 343.56895751 -169.38085938 337.30859375 C-169.4885072 325.01827145 -169.58993742 312.7279062 -169.6875 300.4375 C-170.72680664 300.09493164 -171.76611328 299.75236328 -172.83691406 299.39941406 C-176.70248415 298.12175763 -180.56264314 296.82838659 -184.42138672 295.53027344 C-186.09020525 294.97130181 -187.76044904 294.4165663 -189.43212891 293.86621094 C-191.83886389 293.07303355 -194.24001199 292.26461483 -196.640625 291.453125 C-197.38556213 291.21128479 -198.13049927 290.96944458 -198.89801025 290.72027588 C-203.04130642 289.30089163 -206.02392777 287.98045772 -208.6875 284.4375 C-209.72158267 278.17997412 -208.2534135 274.90010472 -204.67578125 269.79296875 C-204.10214844 269.01566406 -203.52851563 268.23835938 -202.9375 267.4375 C-202.34839844 266.60863281 -201.75929688 265.77976562 -201.15234375 264.92578125 C-196.94890653 259.04816989 -192.6080082 253.26883559 -188.22753906 247.5222168 C-183.61286755 241.43820093 -179.31399206 235.15212723 -175.05078125 228.81835938 C-174.53902344 228.05974609 -174.02726562 227.30113281 -173.5 226.51953125 C-173.05269531 225.85155518 -172.60539062 225.1835791 -172.14453125 224.49536133 C-171.66371094 223.81626709 -171.18289062 223.13717285 -170.6875 222.4375 C-170.10967773 221.58736328 -169.53185547 220.73722656 -168.93652344 219.86132812 C-166.12745314 216.83392366 -163.7788544 215.94753974 -159.890625 214.57421875 C-159.20131897 214.3278215 -158.51201294 214.08142426 -157.80181885 213.82756042 C-151.72998976 211.6985707 -145.5741177 209.83725298 -139.421875 207.95703125 C-136.43872864 207.03329071 -133.45617523 206.10768038 -130.47412109 205.18041992 C-128.43252457 204.55487527 -126.3864576 203.94375626 -124.33642578 203.34643555 C-112.75050068 200.55362075 -112.75050068 200.55362075 -103.61914062 193.70849609 C-102.57263228 190.86781751 -102.57263228 190.86781751 -102.14550781 187.97436523 C-101.6351241 185.14739445 -100.96771639 184.2783446 -98.9375 182.328125 C-95.36257082 177.73533404 -96.43155722 173.34583396 -96.8828125 167.77734375 C-97.21480468 160.92723841 -95.43412613 156.16524263 -91.6875 150.4375 C-88.90363116 147.51182597 -85.80573665 145.08087844 -82.63671875 142.5859375 C-57.3131134 121.2481586 -43.89212892 101.44580627 -34 69.8125 C-33.74948757 69.02226189 -33.49897514 68.23202377 -33.24087143 67.41783905 C-31.55382678 62.07965827 -29.95591562 56.72109355 -28.42578125 51.3359375 C-28.1276396 50.30812668 -28.1276396 50.30812668 -27.82347488 49.259552 C-25.4026883 40.76420204 -24.28522862 32.99741248 -24.67208576 24.17264366 C-24.91842204 17.89826859 -23.62693695 13.33338679 -19.6875 8.4375 C-13.86313691 2.83624759 -8.12673368 0.15470826 0 0 Z M-6.1875 18.9375 C-7.85845201 21.72242001 -8.36297119 23.88623328 -8.28120422 27.13453674 C-6.95782068 32.26790711 -2.48721591 35.73867683 1.18164062 39.34179688 C2.13583191 40.30683696 3.08831481 41.27356877 4.03921509 42.24185181 C6.62034602 44.85938284 9.22605968 47.45105784 11.83809853 50.03770256 C14.57167901 52.75099216 17.28564511 55.483789 20.00280762 58.21350098 C24.56863294 62.79387035 29.15104288 67.35713788 33.74316406 71.91113281 C39.04789347 77.17232531 44.32318519 82.46172048 49.58410883 87.76668882 C54.10622836 92.32514259 58.6437904 96.86778259 63.19456244 101.39763308 C65.91057419 104.10118893 68.62093052 106.80982017 71.31745911 109.53282166 C73.85392828 112.09244618 76.40925797 114.63162212 78.98029709 117.15650558 C80.3661236 118.5267529 81.73238501 119.91670006 83.09793091 121.30715942 C88.10946074 126.40437463 88.10946074 126.40437463 94.77526855 128.08557129 C98.27651724 127.6582953 98.27651724 127.6582953 100.8125 125.9375 C102.48345201 123.15257999 102.98797119 120.98876672 102.90620422 117.74046326 C101.58282068 112.60709289 97.11221591 109.13632317 93.44335938 105.53320312 C92.48916809 104.56816304 91.53668519 103.60143123 90.58578491 102.63314819 C88.00465398 100.01561716 85.39894032 97.42394216 82.78690147 94.83729744 C80.05332099 92.12400784 77.33935489 89.391211 74.62219238 86.66149902 C70.05636706 82.08112965 65.47395712 77.51786212 60.88183594 72.96386719 C55.57710653 67.70267469 50.30181481 62.41327952 45.04089117 57.10831118 C40.51877164 52.54985741 35.9812096 48.00721741 31.43043756 43.47736692 C28.71442581 40.77381107 26.00406948 38.06517983 23.30754089 35.34217834 C20.77107172 32.78255382 18.21574203 30.24337788 15.64470291 27.71849442 C14.2588764 26.3482471 12.89261499 24.95829994 11.52706909 23.56784058 C6.51553926 18.47062537 6.51553926 18.47062537 -0.15026855 16.78942871 C-3.65151724 17.2167047 -3.65151724 17.2167047 -6.1875 18.9375 Z M60.3125 47.4375 C61.78971422 50.88951639 63.75044001 53.08711936 66.4375 55.6875 C67.16195313 56.39390625 67.88640625 57.1003125 68.6328125 57.828125 C69.18710937 58.35921875 69.74140625 58.8903125 70.3125 59.4375 C73.67743948 57.81158387 76.05450028 56.50192819 78.3125 53.4375 C79.13605233 49.43503567 78.92265428 46.4544238 76.8125 42.9375 C73.97105979 41.23263587 71.6694884 40.76174392 68.3515625 40.8984375 C64.57915628 41.89574029 62.75607039 44.50521554 60.3125 47.4375 Z M-11.6875 51.4375 C-14.21699929 58.79434336 -16.73028952 66.15650465 -19.22300148 73.52588272 C-20.38097315 76.94760032 -21.54445329 80.36723309 -22.72070312 83.78271484 C-23.85555584 87.07865533 -24.97569891 90.37925978 -26.08579636 93.68361664 C-26.71946117 95.55712901 -27.36827332 97.42549595 -28.01724243 99.29376221 C-28.39778778 100.43464294 -28.77833313 101.57552368 -29.17041016 102.75097656 C-29.51238434 103.75469299 -29.85435852 104.75840942 -30.20669556 105.7925415 C-30.88969361 108.37366759 -30.88969361 108.37366759 -30.01452637 110.54650879 C-28.49318989 112.71438878 -26.85231107 114.51219099 -24.97216797 116.37988281 C-23.8312117 117.52061249 -23.8312117 117.52061249 -22.66720581 118.68438721 C-21.84632477 119.49494568 -21.02544373 120.30550415 -20.1796875 121.140625 C-19.33906769 121.97841492 -18.49844788 122.81620483 -17.63235474 123.67938232 C-14.94705999 126.35348431 -12.25489345 129.02054724 -9.5625 131.6875 C-7.74042845 133.49954062 -5.91880823 135.31203518 -4.09765625 137.125 C0.36717252 141.56778036 4.83766283 146.00480165 9.3125 150.4375 C16.93732947 148.44332099 24.41876636 146.15972165 31.88671875 143.64453125 C33.46148735 143.11819344 33.46148735 143.11819344 35.06806946 142.58122253 C38.37967361 141.47366029 41.68985232 140.36190662 45 139.25 C47.26227638 138.49255947 49.52464534 137.73539544 51.78710938 136.97851562 C57.29664643 135.13470261 62.80502342 133.28745798 68.3125 131.4375 C66.97370698 128.46298561 65.5007876 126.37494034 63.20019531 124.07122803 C62.5608606 123.42625366 61.92152588 122.7812793 61.26281738 122.11676025 C60.5624939 121.42048523 59.86217041 120.72421021 59.140625 120.00683594 C58.40227417 119.26498047 57.66392334 118.523125 56.90319824 117.75878906 C54.46130714 115.30809504 52.01217251 112.86478909 49.5625 110.421875 C47.86591779 108.72394602 46.16963261 107.0257202 44.47363281 105.32720947 C40.91926101 101.76988859 37.36129494 98.21621222 33.80078125 94.66503906 C29.22715292 90.10282238 24.66258353 85.53166404 20.10064697 80.95775986 C16.60081081 77.45071413 13.09624667 73.94842443 9.59020996 70.44757843 C7.90455091 68.76325748 6.2203871 67.07743878 4.53771973 65.39012909 C2.19139659 63.03875374 -0.16119525 60.69384021 -2.515625 58.35058594 C-3.21594849 57.64621399 -3.91627197 56.94184204 -4.63781738 56.21612549 C-5.2771521 55.58243042 -5.91648682 54.94873535 -6.57519531 54.2958374 C-7.13120422 53.74058254 -7.68721313 53.18532768 -8.2600708 52.61324692 C-9.63657312 51.22557428 -9.63657312 51.22557428 -11.6875 51.4375 Z M-43.32594299 126.82870483 C-43.97578659 127.47997345 -44.62563019 128.13124207 -45.29516602 128.80224609 C-46.03255508 129.53655853 -46.76994415 130.27087097 -47.52967834 131.0274353 C-48.32554855 131.83049103 -49.12141876 132.63354675 -49.94140625 133.4609375 C-50.75745834 134.27744781 -51.57351044 135.09395813 -52.41429138 135.93521118 C-54.14241369 137.66636037 -55.86809913 139.399945 -57.59155273 141.13574219 C-60.23696711 143.79937735 -62.89025997 146.45495942 -65.54492188 149.109375 C-67.21922229 150.78859173 -68.89306586 152.46826411 -70.56640625 154.1484375 C-71.36430069 154.94744476 -72.16219513 155.74645203 -72.98426819 156.56967163 C-73.7185051 157.31028839 -74.452742 158.05090515 -75.20922852 158.81396484 C-75.85827652 159.46682465 -76.50732452 160.11968445 -77.17604065 160.79232788 C-79.83068284 163.68181566 -80.21471071 166.33626055 -80.15307617 170.24633789 C-79.57804661 172.9526254 -78.60795757 174.09536443 -76.73828125 176.12109375 C-76.10293457 176.81267578 -75.46758789 177.50425781 -74.81298828 178.21679688 C-71.04717318 182.15130803 -67.23551441 186.03336341 -63.375 189.875 C-62.56482422 190.68904297 -61.75464844 191.50308594 -60.91992188 192.34179688 C-60.14583984 193.11458984 -59.37175781 193.88738281 -58.57421875 194.68359375 C-57.87514404 195.38154053 -57.17606934 196.0794873 -56.45581055 196.79858398 C-53.50433293 199.53408988 -50.91087656 199.96060471 -46.88598633 199.91029358 C-44.13572184 199.31883782 -42.9440746 198.27515573 -40.88671875 196.37280273 C-40.19288086 195.73535126 -39.49904297 195.09789978 -38.78417969 194.44113159 C-35.52279218 191.3244805 -32.30197268 188.17537852 -29.125 184.97265625 C-28.44824219 184.29448349 -27.77148438 183.61631073 -27.07421875 182.91758728 C-24.94292325 180.78075695 -22.81515782 178.64045177 -20.6875 176.5 C-19.23070221 175.03817877 -17.77367299 173.57658813 -16.31640625 172.11523438 C-12.77076027 168.558646 -9.22827261 164.99893984 -5.6875 161.4375 C-7.02977101 158.45314744 -8.51408283 156.35870449 -10.8203125 154.04589844 C-11.45437012 153.4055365 -12.08842773 152.76517456 -12.74169922 152.10540771 C-13.42506348 151.42609192 -14.10842773 150.74677612 -14.8125 150.046875 C-15.5152002 149.34226135 -16.21790039 148.63764771 -16.94189453 147.91168213 C-18.42560104 146.42661647 -19.91182892 144.94406619 -21.40039062 143.46386719 C-23.68593591 141.18905675 -25.96059017 138.9037464 -28.234375 136.6171875 C-29.67644219 135.17644132 -31.11912935 133.73631535 -32.5625 132.296875 C-33.58754639 131.26575592 -33.58754639 131.26575592 -34.63330078 130.21380615 C-35.2673584 129.58605286 -35.90141602 128.95829956 -36.5546875 128.31152344 C-37.11269043 127.75511169 -37.67069336 127.19869995 -38.24560547 126.62542725 C-40.40140493 124.84933832 -41.22694216 125.04643953 -43.32594299 126.82870483 Z M-3.56689453 183.08984375 C-4.31052246 183.84394531 -5.05415039 184.59804687 -5.8203125 185.375 C-6.62597656 186.18710938 -7.43164062 186.99921875 -8.26171875 187.8359375 C-9.10347656 188.69445312 -9.94523438 189.55296875 -10.8125 190.4375 C-11.66199219 191.29601562 -12.51148438 192.15453125 -13.38671875 193.0390625 C-15.49149951 195.16749249 -17.59148833 197.30043959 -19.6875 199.4375 C-18.34177113 202.43693905 -16.85212899 204.51826179 -14.52294922 206.82910156 C-13.88243622 207.4694635 -13.24192322 208.10982544 -12.58200073 208.76959229 C-11.89236237 209.44890808 -11.202724 210.12822388 -10.4921875 210.828125 C-9.43102219 211.88504547 -9.43102219 211.88504547 -8.34841919 212.96331787 C-6.09110138 215.2094539 -3.82692367 217.44853009 -1.5625 219.6875 C-0.02949047 221.21047717 1.50306715 222.73390939 3.03515625 224.2578125 C6.78904573 227.98966815 10.54858914 231.71575351 14.3125 235.4375 C17.53564687 233.90462414 19.68985598 232.29599312 22.203125 229.7421875 C23.26660156 228.66904297 23.26660156 228.66904297 24.3515625 227.57421875 C25.08117187 226.82785156 25.81078125 226.08148438 26.5625 225.3125 C27.30757812 224.55839844 28.05265625 223.80429687 28.8203125 223.02734375 C30.6556342 221.16849228 32.4861191 219.30512995 34.3125 217.4375 C32.97022899 214.45314744 31.48591717 212.35870449 29.1796875 210.04589844 C28.54562988 209.4055365 27.91157227 208.76517456 27.25830078 208.10540771 C26.57493652 207.42609192 25.89157227 206.74677612 25.1875 206.046875 C24.4847998 205.34226135 23.78209961 204.63764771 23.05810547 203.91168213 C21.57439896 202.42661647 20.08817108 200.94406619 18.59960938 199.46386719 C16.31406409 197.18905675 14.03940983 194.9037464 11.765625 192.6171875 C10.32355781 191.17644132 8.88087065 189.73631535 7.4375 188.296875 C6.41245361 187.26575592 6.41245361 187.26575592 5.36669922 186.21380615 C4.7326416 185.58605286 4.09858398 184.95829956 3.4453125 184.31152344 C2.88730957 183.75511169 2.32930664 183.19869995 1.75439453 182.62542725 C-0.57788759 180.70394033 -1.3527008 181.14314809 -3.56689453 183.08984375 Z M29.3125 185.4375 C34.10243095 191.21791748 39.27632182 196.48710655 44.625 201.75 C46.248373 203.3479482 47.86958364 204.94809713 49.48828125 206.55078125 C50.19895752 207.24985596 50.90963379 207.94893066 51.6418457 208.66918945 C54.42188243 211.61173015 54.85459454 214.21259918 54.76245117 218.26196289 C53.10830918 226.25982467 41.49273986 234.40813394 35.78588867 240.09448242 C33.98302659 241.89192236 32.18565015 243.69472661 30.38867188 245.49804688 C29.24250853 246.64355047 28.09603558 247.78874439 26.94921875 248.93359375 C26.41278244 249.47205429 25.87634613 250.01051483 25.32365417 250.56529236 C21.97259421 253.89513257 20.42842496 255.28357932 15.6875 255.9375 C11.95026401 255.88355431 10.30530859 254.95776923 7.58007812 252.44116211 C6.53871704 251.48438065 6.53871704 251.48438065 5.47631836 250.50827026 C1.82193092 247.01102809 -1.77942122 243.46788977 -5.34375 239.87890625 C-6.52535706 238.69517677 -6.52535706 238.69517677 -7.73083496 237.48753357 C-10.21877102 234.99404988 -12.70318624 232.49709216 -15.1875 230 C-16.8851841 228.29729413 -18.58309858 226.59481793 -20.28125 224.89257812 C-24.4193328 220.74353588 -28.55453935 216.59164424 -32.6875 212.4375 C-33.91146484 212.93080811 -35.13542969 213.42411621 -36.39648438 213.93237305 C-39.52395853 215.10285373 -41.97314246 215.77788785 -45.34375 215.51953125 C-46.13507324 215.47876465 -46.92639648 215.43799805 -47.74169922 215.39599609 C-48.54881348 215.34781738 -49.35592773 215.29963867 -50.1875 215.25 C-57.87189957 214.89445509 -57.87189957 214.89445509 -64.5625 218.3125 C-65.07554687 218.84617187 -65.58859375 219.37984375 -66.1171875 219.9296875 C-70.78353295 224.41030776 -77.03822184 223.90929234 -83.1015625 223.8203125 C-91.33952316 222.94087879 -95.9330399 219.1919601 -101.6875 213.4375 C-111.5875 216.7375 -121.4875 220.0375 -131.6875 223.4375 C-131.6875 224.0975 -131.6875 224.7575 -131.6875 225.4375 C-113.89686262 231.52365656 -96.09479086 237.57513492 -78.2785368 243.58590221 C-70.00581604 246.37780744 -61.73717384 249.18080276 -53.47729492 252.01049805 C-46.27541047 254.47771025 -39.06667176 256.92352973 -31.84902126 259.34424955 C-28.02972937 260.62601546 -24.21463234 261.91799232 -20.40756798 263.23567772 C-16.81854175 264.47752035 -13.22096363 265.69037297 -9.61508369 266.88235664 C-8.29867109 267.32298389 -6.98560983 267.77378515 -5.67656708 268.23584747 C3.13997133 271.33923404 8.61269337 271.79684416 17.3125 268.4375 C19.38373101 267.76642889 21.45724561 267.10237714 23.53263855 266.44429016 C25.82380515 265.68247585 28.11389606 264.91742111 30.40307617 264.1496582 C31.67553242 263.72531758 32.94807739 263.30124293 34.22070312 262.87741089 C37.64026458 261.73774661 41.05858889 260.59441391 44.47668624 259.45036721 C48.062046 258.25105054 51.64855575 257.05518259 55.23493958 255.8589325 C62.01045485 253.59836388 68.78494553 251.33474109 75.55906421 249.06999129 C83.27784247 246.48958692 90.99777086 243.91263193 98.71779287 241.33595145 C114.58396888 236.0402771 130.44871086 230.74032031 146.3125 225.4375 C146.3125 224.7775 146.3125 224.1175 146.3125 223.4375 C131.5023829 218.47744821 116.69055844 213.52253188 101.8766737 208.57374573 C94.99858682 206.27589079 88.12107213 203.97635011 81.24487305 201.67285156 C75.25254524 199.66545101 69.25917435 197.66120203 63.26452237 195.6607523 C60.08957568 194.60113152 56.91517877 193.53992528 53.74202538 192.47494507 C50.20203241 191.28772483 46.66022414 190.1060843 43.11791992 188.92578125 C42.06272156 188.57045319 41.00752319 188.21512512 39.92034912 187.84902954 C38.95701157 187.52929169 37.99367401 187.20955383 37.00114441 186.88012695 C35.74427968 186.45978935 35.74427968 186.45978935 34.46202374 186.03096008 C32.20218897 185.30443382 32.20218897 185.30443382 29.3125 185.4375 Z M-85.6875 193.4375 C-88.10089891 195.42709408 -88.10089891 195.42709408 -88.0625 199.3125 C-87.96649431 202.24600708 -87.74005079 203.34991536 -86.1875 205.9375 C-82.54741277 208.12155234 -79.89095267 207.71773018 -75.6875 207.4375 C-75.0275 206.1175 -74.3675 204.7975 -73.6875 203.4375 C-75.30636415 201.76487283 -76.9327729 200.09954463 -78.5625 198.4375 C-79.46742188 197.509375 -80.37234375 196.58125 -81.3046875 195.625 C-83.39394278 193.21207624 -83.39394278 193.21207624 -85.6875 193.4375 Z M-157.6875 234.4375 C-158.56362768 235.52245758 -159.39454865 236.64393972 -160.20703125 237.77734375 C-160.72918213 238.50268311 -161.25133301 239.22802246 -161.78930664 239.9753418 C-162.35383545 240.767229 -162.91836426 241.55911621 -163.5 242.375 C-164.07806396 243.18171143 -164.65612793 243.98842285 -165.25170898 244.81958008 C-167.06712185 247.35641772 -168.87728573 249.89695117 -170.6875 252.4375 C-171.81767483 254.015649 -172.94788198 255.59377484 -174.078125 257.171875 C-175.13593828 258.65587833 -176.19325101 260.14023861 -177.25 261.625 C-177.73766846 262.30618896 -178.22533691 262.98737793 -178.7277832 263.68920898 C-179.19015381 264.34219971 -179.65252441 264.99519043 -180.12890625 265.66796875 C-180.52795166 266.22895264 -180.92699707 266.78993652 -181.33813477 267.36791992 C-183.25510656 270.30806284 -184.94611443 273.39007526 -186.6875 276.4375 C-137.1875 292.9375 -87.6875 309.4375 -36.6875 326.4375 C-34.08433682 323.83433682 -32.14274011 321.87129945 -30.12890625 318.9609375 C-29.66653564 318.29852051 -29.20416504 317.63610352 -28.7277832 316.95361328 C-28.24011475 316.2470459 -27.75244629 315.54047852 -27.25 314.8125 C-26.19378224 313.29612641 -25.13644967 311.78052886 -24.078125 310.265625 C-23.52833984 309.47865234 -22.97855469 308.69167969 -22.41210938 307.88085938 C-20.64552492 305.37803134 -18.85181474 302.8971659 -17.046875 300.421875 C-16.45447021 299.60928223 -15.86206543 298.79668945 -15.25170898 297.95947266 C-14.10044624 296.38412805 -12.94639184 294.8108191 -11.78930664 293.23974609 C-11.26715576 292.52383301 -10.74500488 291.80791992 -10.20703125 291.0703125 C-9.51250854 290.12502686 -9.51250854 290.12502686 -8.80395508 289.16064453 C-7.50912787 287.31982301 -7.50912787 287.31982301 -6.6875 284.4375 C-26.22719481 277.91649278 -45.76745697 271.3971883 -65.30840206 264.87992859 C-74.38092186 261.85403418 -83.45325287 258.827576 -92.52514648 255.79980469 C-100.42921416 253.16180031 -108.333629 250.5248393 -116.23846823 247.88914776 C-120.42669735 246.4926356 -124.61474686 245.09558999 -128.80238152 243.69729614 C-132.739217 242.38276497 -136.67651307 241.06962318 -140.6141758 239.75757217 C-142.06362052 239.27433179 -143.51289231 238.7905724 -144.96198273 238.3062706 C-146.93175473 237.64803532 -148.90212535 236.99162508 -150.87266541 236.33569336 C-151.97789519 235.96697617 -153.08312498 235.59825897 -154.22184658 235.21836853 C-156.41533071 234.38718013 -156.41533071 234.38718013 -157.6875 234.4375 Z M165.49766541 236.33569336 C164.88427813 236.53987098 164.27089085 236.7440486 163.63891608 236.95441341 C161.56861294 237.64396222 159.4990353 238.33566359 157.42944336 239.02734375 C155.95152507 239.52007713 154.47356282 240.01267865 152.99555969 240.50515747 C148.97050483 241.84674641 144.94607121 243.19019019 140.9217422 244.53395462 C136.72069072 245.93638262 132.51907641 247.3371223 128.31752014 248.73803711 C120.35564312 251.39303399 112.39427734 254.04956051 104.4330917 256.70662975 C95.37196519 259.73072532 86.31027372 262.7531262 77.24853313 265.77538109 C58.60255712 271.99419478 39.95729571 278.21514859 21.3125 284.4375 C21.94244873 285.5475943 22.57239746 286.6576886 23.22143555 287.80142212 C23.57578171 288.42585016 23.93012787 289.05027821 24.29521179 289.69362831 C25.46722394 291.70273329 26.74866681 293.58632807 28.125 295.4609375 C28.63780518 296.16428223 29.15061035 296.86762695 29.67895508 297.59228516 C30.2180249 298.32495605 30.75709473 299.05762695 31.3125 299.8125 C32.46305235 301.39003254 33.61277 302.96817414 34.76171875 304.546875 C35.34614746 305.34931641 35.93057617 306.15175781 36.53271484 306.97851562 C41.19284547 313.41703903 45.74062659 319.93619894 50.3125 326.4375 C80.53446103 316.7360903 110.64465933 306.70176558 140.75104606 296.64866018 C147.37522477 294.43678994 154.00001611 292.2267572 160.62484229 290.01682711 C174.18804405 285.49232928 187.75052933 280.96568664 201.3125 276.4375 C200.3675769 274.77235855 200.3675769 274.77235855 199.40356445 273.07357788 C198.87204521 272.13693582 198.87204521 272.13693582 198.32978821 271.18137169 C197.15777606 269.17226671 195.87633319 267.28867193 194.5 265.4140625 C193.98727539 264.71071777 193.47455078 264.00737305 192.94628906 263.28271484 C192.40713867 262.55004395 191.86798828 261.81737305 191.3125 261.0625 C190.1605263 259.48505522 189.00950964 257.90691116 187.859375 256.328125 C186.98249023 255.12446289 186.98249023 255.12446289 186.08789062 253.89648438 C182.66961222 249.16203717 179.33366683 244.3685652 176.0078125 239.56884766 C174.80024885 237.84122329 173.55991907 236.1365708 172.3125 234.4375 C170.04923778 234.4375 167.59715245 235.63528067 165.49766541 236.33569336 Z M-152.6875 305.4375 C-152.6875 334.8075 -152.6875 364.1775 -152.6875 394.4375 C-126.07711305 403.32704049 -126.07711305 403.32704049 -99.46484375 412.2109375 C-88.61773941 415.83060029 -77.77084926 419.45089633 -66.92529297 423.07519531 C-59.02781538 425.71432097 -51.12964311 428.35135504 -43.23062027 430.98585224 C-39.04601207 432.38159272 -34.86176557 433.77839676 -30.67834854 435.17770386 C-26.74440167 436.49352927 -22.80953526 437.8065656 -18.87393188 439.11742783 C-17.42634371 439.6001413 -15.97910051 440.08389068 -14.53222275 440.5687294 C-12.56325238 441.22834899 -10.59309726 441.88429794 -8.62258911 442.53930664 C-7.51828112 442.90802383 -6.41397312 443.27674103 -5.27620125 443.65663147 C-2.8190211 444.53376411 -2.8190211 444.53376411 -0.6875 444.4375 C-0.6875 399.2275 -0.6875 354.0175 -0.6875 307.4375 C-5.12097374 311.86662138 -5.12097374 311.86662138 -8.73828125 316.6953125 C-9.26832764 317.48115723 -9.79837402 318.26700195 -10.34448242 319.07666016 C-10.89080322 319.8969873 -11.43712402 320.71731445 -12 321.5625 C-13.14733574 323.26116135 -14.29577004 324.95908123 -15.4453125 326.65625 C-15.99864258 327.47480469 -16.55197266 328.29335938 -17.12207031 329.13671875 C-25.9058982 342.0466991 -25.9058982 342.0466991 -28.6875 343.4375 C-36.21582327 343.97787441 -42.07506669 342.38788291 -49.15820312 339.94921875 C-50.82562561 339.39326523 -50.82562561 339.39326523 -52.5267334 338.82608032 C-56.17846573 337.60506463 -59.82347247 336.36513908 -63.46875 335.125 C-66.00899818 334.27180486 -68.54958915 333.4197111 -71.09069824 332.5690918 C-77.08168845 330.56108484 -83.06804094 328.53961587 -89.05274534 326.51296139 C-97.19895544 323.75505791 -105.35164277 321.01645215 -113.50412655 318.27716255 C-115.45943794 317.62014281 -117.41472578 316.96305306 -119.36999512 316.3059082 C-120.00349365 316.09300675 -120.63699218 315.8801053 -121.28968763 315.6607523 C-125.66917736 314.18837151 -130.04688278 312.71076559 -134.4239502 311.23120117 C-135.57959473 310.84104828 -136.73523926 310.45089539 -137.92590332 310.04891968 C-140.09383995 309.31685219 -142.26138124 308.58361258 -144.4284668 307.84902954 C-145.84983948 307.36942276 -145.84983948 307.36942276 -147.29992676 306.88012695 C-148.1279908 306.59990189 -148.95605484 306.31967682 -149.80921173 306.03096008 C-151.51812065 305.38728709 -151.51812065 305.38728709 -152.6875 305.4375 Z M161.92492676 306.88012695 C160.97734497 307.19986481 160.02976318 307.51960266 159.0534668 307.84902954 C158.00521729 308.2043576 156.95696777 308.55968567 155.87695312 308.92578125 C153.600978 309.69433111 151.32497572 310.46280058 149.0489502 311.23120117 C147.83473892 311.64163666 146.62052765 312.05207214 145.36952209 312.47494507 C141.57903123 313.75497044 137.78734476 315.03140369 133.99499512 316.3059082 C133.35512303 316.52096229 132.71525094 316.73601637 132.05598879 316.95758724 C130.08421921 317.62021694 128.11242532 318.28277428 126.140625 318.9453125 C117.97203513 321.69001723 109.80466209 324.43814825 101.64257812 327.20214844 C95.69456855 329.2163396 89.74339397 331.22084754 83.78838301 333.2142477 C80.63840194 334.26909032 77.49074175 335.330146 74.34584045 336.40005493 C70.82905331 337.59571415 67.30697124 338.77432078 63.78320312 339.94921875 C62.75114746 340.30454681 61.7190918 340.65987488 60.65576172 341.02597046 C54.63002209 343.01192744 49.66481 343.98244924 43.3125 343.4375 C38.44534021 339.91521331 35.36252142 334.3421891 32.0625 329.375 C24.53317453 318.15445691 24.53317453 318.15445691 16.3125 307.4375 C15.9825 307.4375 15.6525 307.4375 15.3125 307.4375 C15.3125 352.6475 15.3125 397.8575 15.3125 444.4375 C24.21840783 442.02569799 24.21840783 442.02569799 32.98820496 439.29243469 C34.7904805 438.69305084 34.7904805 438.69305084 36.62916565 438.08155823 C37.92100898 437.6485857 39.21283268 437.21555461 40.50463867 436.7824707 C41.89532003 436.31872177 43.28609005 435.8552386 44.67694092 435.39199829 C48.41880574 434.14489978 52.15943337 432.89412886 55.89983535 431.64265084 C59.82152294 430.33122878 63.74435823 429.02324873 67.66706848 427.71488953 C75.08007058 425.24182418 82.49204847 422.76570409 89.90365535 420.28846091 C99.9296464 416.93758905 109.95722899 413.59148686 119.98471928 410.24510479 C135.76194247 404.97977868 151.5370439 399.708125 167.3125 394.4375 C167.3125 365.0675 167.3125 335.6975 167.3125 305.4375 C165.44623415 305.4375 163.6743537 306.28810356 161.92492676 306.88012695 Z " fill="#000000" transform="translate(248.6875,39.5625)"/>
<path d="M0 0 C3.63303084 1.69586126 5.94549046 3.73800488 8.75 6.625 C9.54921875 7.44226562 10.3484375 8.25953125 11.171875 9.1015625 C11.77515625 9.72804688 12.3784375 10.35453125 13 11 C11.70280076 13.85779017 10.3363174 15.91008536 8.11083984 18.11621094 C7.5303891 18.69651062 6.94993835 19.2768103 6.35189819 19.87469482 C5.72788116 20.48838928 5.10386414 21.10208374 4.4609375 21.734375 C3.82008209 22.37240051 3.17922668 23.01042603 2.51895142 23.66778564 C0.47562179 25.69994069 -1.57455982 27.72502218 -3.625 29.75 C-5.0134786 31.1284453 -6.4015049 32.50734636 -7.7890625 33.88671875 C-11.18748697 37.26311894 -14.59207254 40.63319288 -18 44 C-21.63303084 42.30413874 -23.94549046 40.26199512 -26.75 37.375 C-27.54921875 36.55773438 -28.3484375 35.74046875 -29.171875 34.8984375 C-29.77515625 34.27195313 -30.3784375 33.64546875 -31 33 C-29.70280076 30.14220983 -28.3363174 28.08991464 -26.11083984 25.88378906 C-25.5303891 25.30348938 -24.94993835 24.7231897 -24.35189819 24.12530518 C-23.72788116 23.51161072 -23.10386414 22.89791626 -22.4609375 22.265625 C-21.82008209 21.62759949 -21.17922668 20.98957397 -20.51895142 20.33221436 C-18.47562179 18.30005931 -16.42544018 16.27497782 -14.375 14.25 C-12.9865214 12.8715547 -11.5984951 11.49265364 -10.2109375 10.11328125 C-6.81251303 6.73688106 -3.40792746 3.36680712 0 0 Z " fill="#000000" transform="translate(369,26)"/>
<path d="M0 0 C13.2 0 26.4 0 40 0 C40 5.28 40 10.56 40 16 C26.8 16 13.6 16 0 16 C0 10.72 0 5.44 0 0 Z " fill="#000000" transform="translate(360,80)"/>
<path d="M0 0 C5.28 0 10.56 0 16 0 C16 13.2 16 26.4 16 40 C10.72 40 5.44 40 0 40 C0 26.8 0 13.6 0 0 Z " fill="#000000" transform="translate(312,8)"/>
</svg>
