<?xml version="1.0" encoding="UTF-8"?>
<svg version="1.1" xmlns="http://www.w3.org/2000/svg" width="512" height="512">
<path d="M0 0 C1.03150834 -0.00694553 2.06301668 -0.01389106 3.12578285 -0.02104706 C6.57511448 -0.03931358 10.0237581 -0.02905337 13.47311401 -0.01878357 C15.94876622 -0.02584204 18.42441411 -0.03458675 20.90005493 -0.04489136 C26.92140699 -0.06506277 32.9424897 -0.06641208 38.96384801 -0.05826581 C43.85734499 -0.05196071 48.75078689 -0.0531075 53.64428329 -0.05953789 C54.68978178 -0.06089037 54.68978178 -0.06089037 55.75640144 -0.06227018 C57.17240606 -0.0641214 58.58841067 -0.06598396 60.00441526 -0.06785773 C73.27370624 -0.08442561 86.5428908 -0.07572469 99.81217538 -0.05887216 C111.95258226 -0.04416663 124.09274184 -0.05881725 136.23311688 -0.08764232 C148.70307649 -0.1170293 161.17292193 -0.12801127 173.64291465 -0.11846012 C175.05303882 -0.11743757 176.463163 -0.11644296 177.8732872 -0.11547661 C178.56707451 -0.11500022 179.26086183 -0.11452383 179.975673 -0.114033 C184.86412718 -0.11186845 189.75247327 -0.12167472 194.64090347 -0.13624763 C201.21883604 -0.15558404 207.79638182 -0.14870319 214.37432098 -0.12404823 C216.79106031 -0.11902609 219.20783451 -0.12256621 221.62454605 -0.13519669 C224.91820158 -0.15105154 228.21032406 -0.13624633 231.50390625 -0.11352539 C232.46508618 -0.12536112 233.4262661 -0.13719685 234.41657269 -0.14939123 C238.97910663 -0.08523853 240.99064756 0.03444948 244.72628593 2.86251926 C246.62496948 5.5146637 246.62496948 5.5146637 247.12496948 8.5771637 C246.5775214 11.79342117 245.91740038 13.2222328 243.62496948 15.5146637 C240.86195614 16.43566815 239.24454457 16.6391541 236.39833546 16.63771152 C235.5319636 16.63970257 234.66559175 16.64169362 233.77296621 16.64374501 C232.8206405 16.64083216 231.8683148 16.63791932 230.88713074 16.63491821 C229.37032968 16.63619985 229.37032968 16.63619985 227.82288617 16.63750738 C224.41876142 16.6391606 221.01468543 16.63364335 217.61056519 16.62818909 C215.1766561 16.62790716 212.74274693 16.62806507 210.30883789 16.62863159 C205.06068254 16.62885965 199.81253832 16.62601468 194.56438637 16.62039375 C186.97640845 16.61227208 179.38843655 16.60966285 171.80045476 16.60840576 C159.48992176 16.6062163 147.17939537 16.59955905 134.86886597 16.59010315 C122.90923089 16.58092632 110.94959761 16.57384681 98.98995972 16.56959534 C98.25295998 16.56933261 97.51596024 16.56906989 96.75662718 16.56879921 C93.05937349 16.56749418 89.3621198 16.56623047 85.66486609 16.5649873 C54.98489477 16.55461797 24.30493559 16.53618142 -6.37503052 16.5146637 C-6.04503052 32.6846637 -5.71503052 48.8546637 -5.37503052 65.5146637 C93.95496948 65.5146637 193.28496948 65.5146637 295.62496948 65.5146637 C296.82288121 63.11884024 296.74564388 61.64688832 296.73849487 58.97315979 C296.73838158 57.56192337 296.73838158 57.56192337 296.73826599 56.12217712 C296.73310471 55.10443207 296.72794342 54.08668701 296.72262573 53.0381012 C296.72121078 51.99771698 296.71979584 50.95733276 296.71833801 49.88542175 C296.71272815 46.55347349 296.70017396 43.22159175 296.68746948 39.8896637 C296.68245575 37.63445633 296.67789263 35.37924792 296.67379761 33.1240387 C296.66275551 27.58755756 296.64600775 22.05111538 296.62496948 16.5146637 C295.89382935 16.53037415 295.16268921 16.54608459 294.40939331 16.56227112 C291.08549788 16.62476721 287.76172628 16.66370122 284.43746948 16.7021637 C283.2869812 16.72730042 282.13649292 16.75243713 280.95114136 16.77833557 C279.83932495 16.78800354 278.72750854 16.79767151 277.58200073 16.80763245 C276.05023193 16.83119812 276.05023193 16.83119812 274.48751831 16.85523987 C271.16419489 16.45984233 269.3075479 15.48256567 266.62496948 13.5146637 C265.07910072 10.42292618 265.33137427 7.92036817 265.62496948 4.5146637 C267.83435916 1.46775645 269.05381372 0.61069135 272.79782104 -0.01878357 C274.02468628 -0.02966003 275.25155151 -0.0405365 276.51559448 -0.05174255 C277.1790387 -0.05794113 277.84248291 -0.06413971 278.52603149 -0.07052612 C279.92797382 -0.07761423 281.33000049 -0.07446762 282.73190308 -0.06175232 C284.85543009 -0.04796318 286.97447617 -0.08186254 289.09762573 -0.12010193 C295.70929612 -0.16093035 301.43841677 -0.06150641 307.03805542 3.75709534 C313.24502471 10.63155256 313.21605151 16.7060066 313.15621948 25.67481995 C313.16004639 26.93805588 313.16387329 28.20129181 313.16781616 29.50280762 C313.17053219 32.16691046 313.16522502 34.8295333 313.14645386 37.49342346 C313.12364086 40.89531051 313.13681472 44.29593664 313.16074371 47.69777775 C313.17872861 50.96100278 313.16611279 54.22407842 313.15621948 57.48731995 C313.16431641 58.70307205 313.17241333 59.91882416 313.18075562 61.17141724 C313.10970647 67.58487956 312.97642267 71.65700233 308.62496948 76.5146637 C308.00621948 77.2571637 307.38746948 77.9996637 306.74996948 78.7646637 C300.8613411 83.61412236 293.51597333 82.8011591 286.30236816 82.78208923 C285.04923557 82.78662035 283.79610297 82.79115146 282.50499666 82.79581988 C279.03368791 82.80803713 275.56247562 82.80779093 272.09115028 82.80543113 C268.34463139 82.80502264 264.5981433 82.81606506 260.85163879 82.82554626 C253.51442452 82.84214977 246.17724239 82.8476555 238.8400109 82.84877102 C232.87578198 82.84972172 226.91156367 82.85383308 220.9473381 82.86017227 C204.0346857 82.87778219 187.12205867 82.88701142 170.20939703 82.88551132 C169.2978836 82.88543141 168.38637016 82.8853515 167.44723511 82.88526917 C166.53460787 82.8851874 165.62198062 82.88510564 164.68169801 82.8850214 C149.88879444 82.88420837 135.09599266 82.90335109 120.30311854 82.9315459 C105.11099598 82.96027305 89.91892308 82.97408632 74.72677267 82.97235835 C66.19866027 82.97169443 57.67065461 82.97718751 49.14256668 82.99871445 C41.88225553 83.01692394 34.62209951 83.02127546 27.36177541 83.0076956 C23.65844671 83.00116498 19.95541565 83.00105185 16.25211525 83.0184021 C12.23503087 83.03702873 8.21863581 83.02458109 4.20153809 83.00914001 C3.03441241 83.01942714 1.86728673 83.02971427 0.66479361 83.04031312 C-6.5524852 82.97894136 -12.5864181 82.2200366 -17.92722166 76.99657571 C-21.49534013 72.85767744 -22.49911683 70.44850389 -22.56790161 65.09034729 C-22.58396454 63.95511627 -22.60002747 62.81988525 -22.61657715 61.6502533 C-22.66102865 56.44117531 -22.7025555 51.23218527 -22.72512817 46.02296448 C-22.73842887 43.27783089 -22.76620606 40.53344752 -22.80715942 37.78858948 C-22.86621431 33.83011557 -22.8838225 29.87200041 -22.89846802 25.9131012 C-22.92113739 24.69198639 -22.94380676 23.47087158 -22.96716309 22.2127533 C-22.9518822 16.02464296 -22.5732929 11.4160075 -19.13397217 6.18424988 C-13.18807765 0.54041097 -7.87126671 -0.06779975 0 0 Z " fill="#000000" transform="translate(199.37503051757813,73.48533630371094)"/>
<path d="M0 0 C0.94449147 -0.00779995 1.88898293 -0.01559991 2.86209536 -0.02363622 C6.01129011 -0.04350106 9.15926902 -0.02781282 12.30847168 -0.01205444 C14.57251183 -0.01883298 16.83654646 -0.02773743 19.10057068 -0.03860474 C25.23900591 -0.06137616 31.3770204 -0.05257028 37.51546288 -0.03670931 C43.94326272 -0.02403934 50.37102685 -0.03579349 56.79882812 -0.04364014 C68.28377355 -0.05331571 79.76850411 -0.03778977 91.25341588 -0.01234345 C101.65711639 0.00999405 112.06053792 0.00611349 122.4642334 -0.01693726 C134.55894536 -0.0437223 146.65343846 -0.05364043 158.74818563 -0.03887594 C165.14571422 -0.03108584 171.54305081 -0.03002799 177.94056702 -0.04655838 C183.95553757 -0.06101504 189.96998192 -0.05095865 195.98489571 -0.0220871 C198.19073679 -0.01548281 200.39662225 -0.01736264 202.6024456 -0.02840042 C205.61698805 -0.0420928 208.62985126 -0.0248943 211.64428711 0 C212.51433648 -0.01115361 213.38438584 -0.02230722 214.28080034 -0.03379881 C220.37049959 0.0635482 224.66264731 1.63872985 229.32214355 5.63491821 C233.32053286 10.69298691 234.43732094 16.07792575 234.46740723 22.39004517 C234.47697701 23.7622094 234.47697701 23.7622094 234.48674011 25.16209412 C234.48840935 26.62784126 234.48840935 26.62784126 234.4901123 28.12319946 C234.4934407 29.14036545 234.4967691 30.15753143 234.50019836 31.20552063 C234.50525359 33.35475209 234.50760712 35.50399136 234.50744629 37.65322876 C234.50962877 40.92525312 234.52778859 44.196938 234.54675293 47.46890259 C234.54968802 49.5620004 234.55167204 51.6550998 234.5526123 53.74819946 C234.55979782 54.71929153 234.56698334 55.69038361 234.5743866 56.69090271 C234.55149094 63.56885506 234.44353374 71.03247611 229.63464355 76.44741821 C228.94821777 77.26146118 228.94821777 77.26146118 228.2479248 78.09194946 C222.1857241 82.94908795 216.16598693 83.1040633 208.69714355 83.00991821 C207.76901855 83.02151978 206.84089355 83.03312134 205.88464355 83.04507446 C200.92801146 83.02377089 197.29222675 82.95682456 193.32214355 79.63491821 C191.89552137 76.78167384 192.01180488 74.80037272 192.32214355 71.63491821 C193.70495605 68.98257446 193.70495605 68.98257446 196.32214355 66.63491821 C199.71135016 65.89474666 203.05026596 65.88978715 206.50964355 65.88491821 C208.33653206 65.8519098 210.16336547 65.81563276 211.9901123 65.77554321 C213.20090454 65.76829224 213.20090454 65.76829224 214.43615723 65.76089478 C216.33456084 65.84197013 216.33456084 65.84197013 217.32214355 64.63491821 C217.32214355 48.79491821 217.32214355 32.95491821 217.32214355 16.63491821 C143.73214355 16.63491821 70.14214355 16.63491821 -5.67785645 16.63491821 C-5.34785645 32.80491821 -5.01785645 48.97491821 -4.67785645 65.63491821 C0.57217285 65.6390271 5.82220215 65.64313599 11.23132324 65.64736938 C28.54604316 65.66453988 45.86061526 65.70874324 63.17524338 65.76700878 C73.67670776 65.80168322 84.17804055 65.82701752 94.67956543 65.83047485 C103.83117032 65.83351134 112.98254099 65.8539592 122.13405538 65.89544278 C126.98117641 65.91680322 131.8279642 65.92935781 136.67513275 65.92107201 C141.23564249 65.91355107 145.79547595 65.9292744 150.35586166 65.96297836 C152.03122082 65.97123536 153.70664694 65.97093373 155.38199997 65.96151543 C157.66727325 65.94993828 159.95031344 65.96893844 162.2354126 65.99568176 C163.51486126 65.99844714 164.79430992 66.00121252 166.11252975 66.0040617 C169.32214355 66.63491821 169.32214355 66.63491821 171.73381424 68.98346424 C173.67663683 72.2266863 173.95518072 73.91582484 173.32214355 77.63491821 C171.45504445 79.93767377 169.96566614 81.31315692 167.32214355 82.63491821 C165.0597876 82.73601275 162.79436199 82.77005958 160.52975464 82.77536011 C159.8231522 82.77833123 159.11654977 82.78130235 158.38853514 82.78436351 C156.00880814 82.79307003 153.62913134 82.79456042 151.24938965 82.79605103 C149.54780977 82.80067796 147.84623094 82.80570245 146.14465332 82.81109619 C141.51215133 82.82423754 136.87966385 82.83066897 132.24714613 82.83510685 C129.35283811 82.83803587 126.45853408 82.84214044 123.56422806 82.84661102 C114.50866443 82.86029292 105.45310988 82.86995517 96.39753664 82.87381291 C85.94494597 82.87829011 75.49248631 82.89581939 65.03993547 82.92481351 C56.96170261 82.94644305 48.88350655 82.95651794 40.80524504 82.95785403 C35.98042687 82.9589015 31.15573173 82.96479657 26.33094406 82.98267365 C21.78865389 82.99917543 17.24657891 83.00129959 12.70426941 82.99253464 C11.04023792 82.99176529 9.37619476 82.99609351 7.71219254 83.00599289 C-10.60082639 83.10851687 -10.60082639 83.10851687 -16.7364502 77.88101196 C-17.41900879 76.98575806 -17.41900879 76.98575806 -18.11535645 76.07241821 C-18.82498535 75.17329712 -18.82498535 75.17329712 -19.5489502 74.25601196 C-21.7432383 71.10504461 -21.8175 69.00794584 -21.8548584 65.19473267 C-21.86769363 64.05627396 -21.88052887 62.91781525 -21.89375305 61.74485779 C-21.90113998 60.50846054 -21.90852692 59.27206329 -21.9161377 57.99819946 C-21.92420944 56.73026047 -21.93228119 55.46232147 -21.94059753 54.15596008 C-21.95445071 51.46669857 -21.96546273 48.77756015 -21.97302246 46.08828735 C-21.98405672 42.65622902 -22.01841939 39.22482449 -22.05819416 35.79299641 C-22.09075851 32.50729598 -22.09514864 29.22153665 -22.1036377 25.93569946 C-22.12114578 24.70942337 -22.13865387 23.48314728 -22.1566925 22.2197113 C-22.13963877 15.49153046 -22.05132741 10.90630839 -17.67785645 5.63491821 C-12.01529525 0.96249874 -7.20393455 -0.09235093 0 0 Z " fill="#000000" transform="translate(198.6778564453125,214.36508178710938)"/>
<path d="M0 0 C1.98507051 2.62113184 3.33318386 5.48019597 4.75 8.4375 C5.19585449 9.27627686 5.64170898 10.11505371 6.10107422 10.97924805 C8.39680693 15.35597241 10.22102042 19.48374337 11.4609375 24.2734375 C13.2083901 30.02331536 14.87660701 34.52473687 20 38 C30.53993064 41.83753806 42.593201 42.48297331 53.70391846 43.23014832 C61.08169614 43.8004251 61.08169614 43.8004251 64 47 C65.52989794 51.75073571 65.52989794 51.75073571 65 55 C63.09051298 58.1095671 60.62756062 60.48888234 58 63 C57.42378906 63.598125 56.84757813 64.19625 56.25390625 64.8125 C53.32012538 67.847913 50.25730601 70.67948388 47.0625 73.4375 C46.44189697 73.99783936 45.82129395 74.55817871 45.18188477 75.13549805 C43 77 43 77 40.76538086 78.44311523 C38.0521398 80.45787409 36.58576925 81.98972175 35 85 C34.43451817 91.22731974 36.21483679 97.5733454 37.5 103.625 C37.99090778 106.14705078 38.46907976 108.67125549 38.94519043 111.19613647 C39.24515373 112.76109592 39.55618817 114.32398747 39.88000488 115.88418579 C42.00096615 126.2675586 42.00096615 126.2675586 39.375 130.8125 C36.35583764 133.59330744 35.10660008 133.89745153 31 134 C27.67946265 132.84890589 24.6538662 131.2226126 21.5625 129.5625 C20.6844873 129.10963623 19.80647461 128.65677246 18.90185547 128.19018555 C14.74897415 126.0367698 10.64115604 123.81319925 6.56640625 121.515625 C5.56081665 120.95572876 5.56081665 120.95572876 4.53491211 120.38452148 C3.29609126 119.68917924 2.06568667 118.97853921 0.84594727 118.25024414 C-3.26430414 115.92991206 -5.47949901 115.93102452 -10 117 C-12.66951994 118.10693113 -12.66951994 118.10693113 -15.265625 119.546875 C-16.23886719 120.0625 -17.21210937 120.578125 -18.21484375 121.109375 C-19.21644531 121.65078125 -20.21804687 122.1921875 -21.25 122.75 C-34.19683617 129.65497929 -34.19683617 129.65497929 -38.51953125 131.890625 C-39.30175049 132.29829102 -40.08396973 132.70595703 -40.88989258 133.12597656 C-43.95232418 134.39446032 -45.94397156 134.19259646 -49 133 C-51.50654598 131.35778022 -51.92309536 130.30758977 -52.65234375 127.39086914 C-53.06301385 123.38539368 -52.50952554 119.84674542 -51.75 115.93359375 C-51.61303711 115.17708023 -51.47607422 114.42056671 -51.33496094 113.64112854 C-50.89948448 111.23805672 -50.45124966 108.83765645 -50 106.4375 C-49.40605286 103.27136832 -48.82458374 100.10328916 -48.25 96.93359375 C-48.11045898 96.21264023 -47.97091797 95.49168671 -47.82714844 94.74888611 C-46.8186606 89.28377683 -46.8186606 89.28377683 -48 84 C-49.88839322 81.68516314 -52.03198935 79.69363679 -54.22265625 77.66796875 C-55.49598427 76.44522518 -56.76875368 75.22189966 -58.04101562 73.99804688 C-60.0505608 72.0877385 -62.0658367 70.18438326 -64.09204102 68.29174805 C-66.04921828 66.45571689 -67.98046606 64.59530912 -69.91015625 62.73046875 C-70.51948502 62.17497849 -71.12881378 61.61948822 -71.75660706 61.04716492 C-74.74139851 58.13475035 -76.3962371 56.08820985 -76.63061523 51.8293457 C-76 48 -76 48 -74.59863281 45.60644531 C-70.72427227 43.21135959 -66.89422062 42.84765549 -62.421875 42.296875 C-61.03201385 42.10560028 -61.03201385 42.10560028 -59.61407471 41.91046143 C-56.66126561 41.50778583 -53.70597927 41.12862673 -50.75 40.75 C-48.74458351 40.48071231 -46.73937156 40.20989666 -44.734375 39.9375 C-39.82511192 39.27392922 -34.91349637 38.63142794 -30 38 C-29.61279785 36.74751465 -29.61279785 36.74751465 -29.21777344 35.46972656 C-27.09469557 29.42057206 -24.16855403 23.73085155 -21.34277344 17.98535156 C-20.61280138 16.49213794 -19.891458 14.99467588 -19.17871094 13.49316406 C-18.14366813 11.3135753 -17.08291638 9.14832005 -16.015625 6.984375 C-15.70288635 6.31355896 -15.39014771 5.64274292 -15.06793213 4.95159912 C-13.40003607 1.64614018 -12.32452234 0.15472317 -8.94140625 -1.45825195 C-5.08391965 -2.16872363 -3.43475367 -1.94238075 0 0 Z M-6 25 C-6.27674561 25.53367187 -6.55349121 26.06734375 -6.83862305 26.6171875 C-8.11818308 29.07990784 -9.40280868 31.53995279 -10.6875 34 C-11.12255859 34.83917969 -11.55761719 35.67835937 -12.00585938 36.54296875 C-13.31353536 39.04208286 -14.65459753 41.52103814 -16 44 C-16.39147217 44.77359863 -16.78294434 45.54719727 -17.1862793 46.34423828 C-19.29832761 50.21377977 -20.26764196 51.713603 -24.49609375 53.3671875 C-25.79675781 53.53476563 -27.09742188 53.70234375 -28.4375 53.875 C-29.13037109 53.97466064 -29.82324219 54.07432129 -30.53710938 54.17700195 C-31.97172312 54.37982553 -33.40858068 54.56734938 -34.84716797 54.73974609 C-36.95832486 54.99496193 -39.05761524 55.29532137 -41.16015625 55.61328125 C-44.43710544 56.1033235 -47.71553679 56.56378223 -51 57 C-47.93852182 60.68694146 -44.86986844 64.20636502 -41.38671875 67.5 C-40.77892578 68.0775 -40.17113281 68.655 -39.54492188 69.25 C-38.29625586 70.42645084 -37.03821717 71.59302489 -35.77148438 72.75 C-32.95451863 75.45525327 -31.21704748 77.35293739 -29.9609375 81.09765625 C-30.01980219 86.97823907 -30.96138338 92.64713831 -31.9375 98.4375 C-32.13279297 99.64599609 -32.32808594 100.85449219 -32.52929688 102.09960938 C-33.01034624 105.06803592 -33.50083143 108.03457602 -34 111 C-32.27255857 110.13627928 -30.54518326 109.2724261 -28.81811523 108.40795898 C-27.35004482 107.6746592 -25.88079335 106.94371939 -24.41040039 106.21508789 C-21.22597636 104.63395121 -18.07031174 103.03881136 -14.95703125 101.3203125 C-13.70986328 100.63582031 -13.70986328 100.63582031 -12.4375 99.9375 C-11.73496094 99.53402344 -11.03242187 99.13054687 -10.30859375 98.71484375 C-4.84984246 97.02457051 -0.64033989 99.03109634 4.20703125 101.50390625 C6.08123695 102.51289102 7.94963926 103.53271984 9.8125 104.5625 C11.69212576 105.58809702 13.57354816 106.61041044 15.45703125 107.62890625 C16.28178955 108.08338135 17.10654785 108.53785645 17.95629883 109.00610352 C19.92100387 110.14578199 19.92100387 110.14578199 22 110 C21.86368164 109.13217896 21.86368164 109.13217896 21.72460938 108.24682617 C21.30784506 105.56163509 20.90389213 102.8746562 20.5 100.1875 C20.35691406 99.27806641 20.21382813 98.36863281 20.06640625 97.43164062 C19.64995792 94.6255721 19.31847871 91.81873082 19 89 C18.85304688 88.08250977 18.70609375 87.16501953 18.5546875 86.21972656 C18.10805396 81.71989369 18.26480459 79.06433469 20.88085938 75.27709961 C23.47042894 72.48297027 26.16670316 69.92113838 29 67.375 C30.87601886 65.61306337 32.75107656 63.85010257 34.625 62.0859375 C35.46289062 61.3232959 36.30078125 60.5606543 37.1640625 59.77490234 C37.76992187 59.18918457 38.37578125 58.6034668 39 58 C39 57.67 39 57.34 39 57 C38.20827393 56.89453857 37.41654785 56.78907715 36.60083008 56.68041992 C33.00302843 56.1944728 29.40786011 55.6911801 25.8125 55.1875 C24.56662109 55.02185547 23.32074219 54.85621094 22.03710938 54.68554688 C20.83505859 54.51474609 19.63300781 54.34394531 18.39453125 54.16796875 C17.28956299 54.01610107 16.18459473 53.8642334 15.04614258 53.70776367 C10.47508843 52.64569058 7.87444548 51.38066972 5.33081055 47.36450195 C4.85426025 46.33284912 4.37770996 45.30119629 3.88671875 44.23828125 C3.36142578 43.12001953 2.83613281 42.00175781 2.29492188 40.84960938 C1.76447266 39.68236328 1.23402344 38.51511719 0.6875 37.3125 C0.13771484 36.13365234 -0.41207031 34.95480469 -0.97851562 33.74023438 C-2.33225166 30.8326448 -3.67205981 27.9194386 -5 25 C-5.33 25 -5.66 25 -6 25 Z " fill="#000000" transform="translate(76,49)"/>
<path d="M0 0 C3.45326008 4.8055857 5.96258435 9.92088204 8.453125 15.2734375 C9.0793957 16.60548351 9.7056983 17.93751451 10.33203125 19.26953125 C11.30040379 21.32997176 12.25791674 23.39271056 13.18701172 25.47119141 C16.38419043 33.31695396 16.38419043 33.31695396 21.99365234 39.28833008 C24.38216908 39.86014663 26.54390845 39.95139177 29 40 C31.25506136 40.30390742 33.5075671 40.62712035 35.7578125 40.96484375 C39.46086901 41.45898152 43.16483818 41.94254728 46.87109375 42.41210938 C61.79148324 44.42339711 61.79148324 44.42339711 65.5 48.75 C66.31627526 52.42323869 66.14001652 54.33994697 65 58 C61.23883489 62.61969192 56.68355187 66.43040479 52.1875 70.3125 C51.59026123 70.84987793 50.99302246 71.38725586 50.37768555 71.94091797 C48.60776159 73.47367684 46.76387932 74.92183135 44.88696289 76.3215332 C38.73510806 81.18125769 38.73510806 81.18125769 35.61044312 88.11257935 C35.55457463 93.8359342 36.93475196 99.33837005 38.25 104.875 C38.60019529 106.55074933 38.94400086 108.22784731 39.28125 109.90625 C39.75717919 112.27282744 40.24077359 114.63319249 40.77740479 116.98678589 C43.08722155 127.18796408 43.08722155 127.18796408 40.3125 131.8125 C37.58250005 134.39493239 36.7283142 134.8444445 33 135 C29.93894857 133.99920396 27.12166963 132.57258374 24.25 131.125 C23.41960205 130.72168457 22.5892041 130.31836914 21.73364258 129.90283203 C17.49216771 127.82253367 13.31634389 125.64786301 9.18359375 123.359375 C8.42594727 122.94284668 7.66830078 122.52631836 6.88769531 122.09716797 C5.45220701 121.29978066 4.02517963 120.4869095 2.60839844 119.65673828 C-1.83619914 117.1724746 -4.11401146 116.7826512 -9 118 C-12.11015166 119.334406 -12.11015166 119.334406 -15.24609375 121.0546875 C-16.41333984 121.66957031 -17.58058594 122.28445313 -18.78320312 122.91796875 C-20.00154273 123.56986295 -21.21964003 124.22221019 -22.4375 124.875 C-24.2497266 125.83858476 -26.06321433 126.79968881 -27.87818909 127.75808716 C-29.52860351 128.63078119 -31.17542482 129.51026057 -32.82202148 130.39013672 C-42.17327929 135.1271878 -42.17327929 135.1271878 -46.25 134.5 C-49.56737199 132.69052437 -50.42799275 131.40997343 -52 128 C-51.99609375 125.0390625 -51.99609375 125.0390625 -51.4375 121.625 C-51.34106201 120.99867676 -51.24462402 120.37235352 -51.14526367 119.72705078 C-50.47670827 115.49872666 -49.69270934 111.29022087 -48.9296875 107.078125 C-48.74607666 106.05380371 -48.56246582 105.02948242 -48.37329102 103.97412109 C-48.00403073 101.93346369 -47.62456393 99.89462266 -47.23413086 97.85791016 C-47.06018799 96.91222168 -46.88624512 95.9665332 -46.70703125 94.9921875 C-46.5469458 94.15026855 -46.38686035 93.30834961 -46.22192383 92.44091797 C-45.90224357 88.92478686 -45.87168132 86.39660302 -48.17906189 83.54058838 C-49.81138005 81.85750493 -51.50121255 80.25975501 -53.22265625 78.66796875 C-54.49598427 77.44522518 -55.76875368 76.22189966 -57.04101562 74.99804688 C-59.0505608 73.0877385 -61.0658367 71.18438326 -63.09204102 69.29174805 C-65.04921828 67.45571689 -66.98046606 65.59530912 -68.91015625 63.73046875 C-69.51948502 63.17497849 -70.12881378 62.61948822 -70.75660706 62.04716492 C-73.74139851 59.13475035 -75.3962371 57.08820985 -75.63061523 52.8293457 C-75 49 -75 49 -73.55102539 46.60644531 C-69.9012009 44.30805837 -66.41465497 43.8654448 -62.18359375 43.296875 C-61.33072281 43.16935852 -60.47785187 43.04184204 -59.59913635 42.91046143 C-56.88060427 42.50807072 -54.15937444 42.12904693 -51.4375 41.75 C-49.60199678 41.48063962 -47.76670674 41.20982231 -45.93164062 40.9375 C-32.71205362 39 -32.71205362 39 -29 39 C-28.72526855 38.12456543 -28.45053711 37.24913086 -28.16748047 36.34716797 C-27.07759732 33.2224716 -25.81195409 30.39512771 -24.3203125 27.4453125 C-23.80339844 26.41792969 -23.28648438 25.39054687 -22.75390625 24.33203125 C-22.21636719 23.27371094 -21.67882813 22.21539062 -21.125 21.125 C-20.59519531 20.07441406 -20.06539062 19.02382813 -19.51953125 17.94140625 C-18.48741847 15.8951082 -17.45220652 13.85036973 -16.41357422 11.80737305 C-15.52931502 10.05122511 -14.65879943 8.28801136 -13.80908203 6.51489258 C-11.23871137 1.15704696 -11.23871137 1.15704696 -8.625 -0.5625 C-5.18099085 -1.13650152 -3.31185766 -1.24194662 0 0 Z M-5 26 C-5.27674561 26.53367187 -5.55349121 27.06734375 -5.83862305 27.6171875 C-7.11818308 30.07990784 -8.40280868 32.53995279 -9.6875 35 C-10.12255859 35.83917969 -10.55761719 36.67835938 -11.00585938 37.54296875 C-11.8853466 39.22376655 -12.77717545 40.89816355 -13.68115234 42.56591797 C-14.53643791 44.14444389 -15.36668356 45.73689734 -16.16650391 47.34423828 C-18.34320406 51.38485762 -19.28728801 52.74015709 -23.75 54.3671875 C-25.16193544 54.57221281 -26.57963963 54.740191 -28 54.875 C-28.74241943 54.97466064 -29.48483887 55.07432129 -30.24975586 55.17700195 C-31.76348646 55.37869207 -33.27915174 55.5663758 -34.79638672 55.73974609 C-38.06870417 56.12621744 -41.30959016 56.66260675 -44.5625 57.1875 C-46.37470078 57.46032827 -48.18707846 57.7320029 -50 58 C-46.93852182 61.68694146 -43.86986844 65.20636502 -40.38671875 68.5 C-39.77892578 69.0775 -39.17113281 69.655 -38.54492188 70.25 C-37.29625586 71.42645084 -36.03821717 72.59302489 -34.77148438 73.75 C-31.95451863 76.45525327 -30.21704748 78.35293739 -28.9609375 82.09765625 C-29.01980219 87.97823907 -29.96138338 93.64713831 -30.9375 99.4375 C-31.13279297 100.64599609 -31.32808594 101.85449219 -31.52929688 103.09960938 C-32.01034624 106.06803592 -32.50083143 109.03457602 -33 112 C-31.27255857 111.13627928 -29.54518326 110.2724261 -27.81811523 109.40795898 C-26.35004482 108.6746592 -24.88079335 107.94371939 -23.41040039 107.21508789 C-20.22597636 105.63395121 -17.07031174 104.03881136 -13.95703125 102.3203125 C-12.70986328 101.63582031 -12.70986328 101.63582031 -11.4375 100.9375 C-10.73496094 100.53402344 -10.03242187 100.13054687 -9.30859375 99.71484375 C-3.84984246 98.02457051 0.35966011 100.03109634 5.20703125 102.50390625 C7.08123695 103.51289102 8.94963926 104.53271984 10.8125 105.5625 C12.69212576 106.58809702 14.57354816 107.61041044 16.45703125 108.62890625 C17.28178955 109.08338135 18.10654785 109.53785645 18.95629883 110.00610352 C20.92100387 111.14578199 20.92100387 111.14578199 23 111 C22.86368164 110.13217896 22.86368164 110.13217896 22.72460938 109.24682617 C22.30784506 106.56163509 21.90389213 103.8746562 21.5 101.1875 C21.35691406 100.27806641 21.21382813 99.36863281 21.06640625 98.43164062 C20.64995792 95.6255721 20.31847871 92.81873082 20 90 C19.85304688 89.08250977 19.70609375 88.16501953 19.5546875 87.21972656 C19.10805396 82.71989369 19.26480459 80.06433469 21.88085938 76.27709961 C24.47042894 73.48297027 27.16670316 70.92113838 30 68.375 C31.87601886 66.61306337 33.75107656 64.85010257 35.625 63.0859375 C36.46289062 62.3232959 37.30078125 61.5606543 38.1640625 60.77490234 C38.76992187 60.18918457 39.37578125 59.6034668 40 59 C40 58.67 40 58.34 40 58 C38.67609253 57.83564453 38.67609253 57.83564453 37.32543945 57.66796875 C34.03096256 57.24156095 30.74418864 56.78331234 27.45727539 56.30322266 C26.03812905 56.10258751 24.61713884 55.91455274 23.19458008 55.73974609 C11.51688485 54.29179369 11.51688485 54.29179369 8.09643555 51.37890625 C6.7573938 49.30366555 5.87886809 47.30650952 5 45 C4.18782115 43.35078475 3.36855778 41.7050432 2.54296875 40.0625 C1.75267079 38.37740187 0.96754027 36.68987093 0.1875 35 C-0.42254883 33.69482422 -0.42254883 33.69482422 -1.04492188 32.36328125 C-2.03456372 30.24428342 -3.01948047 28.12323027 -4 26 C-4.33 26 -4.66 26 -5 26 Z " fill="#000000" transform="translate(75,330)"/>
<path d="M0 0 C2.1126205 2.60296842 3.45792779 5.47498706 4.875 8.5 C5.29644287 9.33845459 5.71788574 10.17690918 6.15209961 11.04077148 C8.31891641 15.37724282 10.35173871 19.76364776 12.32421875 24.19140625 C12.89003662 25.41923828 12.89003662 25.41923828 13.46728516 26.671875 C14.18105066 28.22987586 14.86601623 29.80149604 15.51708984 31.38671875 C16.50562342 33.53889478 17.42898816 35.2267313 19 37 C22.25827368 38.16512073 24.61703572 38.62501042 28 39 C29.88829836 39.2859837 31.77654418 39.57235993 33.66386414 39.86473083 C35.76491213 40.18768724 37.86731688 40.49929892 39.97070312 40.80664062 C40.68363525 40.91081299 41.39656738 41.01498535 42.13110352 41.12231445 C43.59388632 41.33366897 45.05711362 41.54196818 46.52075195 41.74731445 C48.65745492 42.04881826 50.79156618 42.3650178 52.92578125 42.68359375 C54.18817627 42.86462646 55.45057129 43.04565918 56.7512207 43.23217773 C59.99774069 43.99946603 61.66721275 44.64959617 64 47 C65.03782491 50.73616969 65.53711262 52.93257365 63.765625 56.453125 C59.77638105 62.20752114 54.35112634 66.89057126 49.0625 71.4375 C48.16470825 72.24501709 48.16470825 72.24501709 47.2487793 73.06884766 C45 75 45 75 42.33227539 76.8762207 C37.09661936 80.98897469 37.09661936 80.98897469 34.71890259 87.00411987 C34.80846357 92.69909783 36.13088532 98.21642696 37.375 103.75 C37.8810871 106.25824294 38.37124227 108.76925158 38.86050415 111.28082275 C39.16956595 112.8351582 39.49161104 114.38698797 39.82870483 115.93548584 C42.0491538 126.25141033 42.0491538 126.25141033 39.3125 130.8125 C36.58250005 133.39493239 35.7283142 133.8444445 32 134 C28.93894857 132.99920396 26.12166963 131.57258374 23.25 130.125 C22.41960205 129.72168457 21.5892041 129.31836914 20.73364258 128.90283203 C16.49216771 126.82253367 12.31634389 124.64786301 8.18359375 122.359375 C7.42594727 121.94284668 6.66830078 121.52631836 5.88769531 121.09716797 C4.45220701 120.29978066 3.02517963 119.4869095 1.60839844 118.65673828 C-2.83294276 116.17429473 -5.11637604 115.79650155 -10 117 C-12.89792041 118.22073982 -12.89792041 118.22073982 -15.7734375 119.80078125 C-16.8459375 120.36603516 -17.9184375 120.93128906 -19.0234375 121.51367188 C-20.12945312 122.10728516 -21.23546875 122.70089844 -22.375 123.3125 C-24.57006405 124.47572937 -26.76537124 125.63850007 -28.9609375 126.80078125 C-29.99871338 127.35064697 -31.03648926 127.9005127 -32.10571289 128.46704102 C-33.06082764 128.97291748 -34.01594238 129.47879395 -35 130 C-35.81009521 130.43304443 -36.62019043 130.86608887 -37.45483398 131.31225586 C-40.66351664 132.98601492 -42.63314541 134.00692178 -46.3125 133.9375 C-49.14298356 132.95012201 -50.36546239 132.49482057 -52 130 C-53.23449938 125.06246451 -52.70381154 120.84772633 -51.75 115.93359375 C-51.61303711 115.17708023 -51.47607422 114.42056671 -51.33496094 113.64112854 C-50.89948448 111.23805672 -50.45124966 108.83765645 -50 106.4375 C-49.40605286 103.27136832 -48.82458374 100.10328916 -48.25 96.93359375 C-48.11045898 96.21264023 -47.97091797 95.49168671 -47.82714844 94.74888611 C-46.8186606 89.28377683 -46.8186606 89.28377683 -48 84 C-49.88839322 81.68516314 -52.03198935 79.69363679 -54.22265625 77.66796875 C-55.49598427 76.44522518 -56.76875368 75.22189966 -58.04101562 73.99804688 C-60.0505608 72.0877385 -62.0658367 70.18438326 -64.09204102 68.29174805 C-66.04921828 66.45571689 -67.98046606 64.59530912 -69.91015625 62.73046875 C-70.51948502 62.17497849 -71.12881378 61.61948822 -71.75660706 61.04716492 C-74.74139851 58.13475035 -76.3962371 56.08820985 -76.63061523 51.8293457 C-76 48 -76 48 -74.59863281 45.60644531 C-70.72427227 43.21135959 -66.89422062 42.84765549 -62.421875 42.296875 C-61.03201385 42.10560028 -61.03201385 42.10560028 -59.61407471 41.91046143 C-56.66126561 41.50778583 -53.70597927 41.12862673 -50.75 40.75 C-48.74458351 40.48071231 -46.73937156 40.20989666 -44.734375 39.9375 C-39.82511192 39.27392922 -34.91349637 38.63142794 -30 38 C-29.6138855 36.74751465 -29.6138855 36.74751465 -29.2199707 35.46972656 C-27.88523604 31.67359909 -26.24474397 28.09338027 -24.48046875 24.484375 C-24.14002029 23.78733459 -23.79957184 23.09029419 -23.44880676 22.37213135 C-22.73085132 20.90870818 -22.01048866 19.44646378 -21.2878418 17.98535156 C-20.55248213 16.49146359 -19.82431056 14.99401641 -19.10327148 13.49316406 C-18.05704599 11.31556902 -16.99015415 9.1492834 -15.91796875 6.984375 C-15.60006882 6.31355896 -15.28216888 5.64274292 -14.95463562 4.95159912 C-13.46001679 1.99025697 -12.38007915 0.2194135 -9.47436523 -1.45800781 C-5.61256988 -2.30390674 -3.56635871 -1.6914274 0 0 Z M-6 25 C-6.27674561 25.53367188 -6.55349121 26.06734375 -6.83862305 26.6171875 C-8.11818308 29.07990784 -9.40280868 31.53995279 -10.6875 34 C-11.12255859 34.83917969 -11.55761719 35.67835938 -12.00585938 36.54296875 C-12.8853466 38.22376655 -13.77717545 39.89816355 -14.68115234 41.56591797 C-15.53643791 43.14444389 -16.36668356 44.73689734 -17.16650391 46.34423828 C-19.34320406 50.38485762 -20.28728801 51.74015709 -24.75 53.3671875 C-26.16193544 53.57221281 -27.57963963 53.740191 -29 53.875 C-29.74241943 53.97466064 -30.48483887 54.07432129 -31.24975586 54.17700195 C-32.76348646 54.37869207 -34.27915174 54.5663758 -35.79638672 54.73974609 C-39.06870417 55.12621744 -42.30959016 55.66260675 -45.5625 56.1875 C-47.37470078 56.46032827 -49.18707846 56.7320029 -51 57 C-47.93852182 60.68694146 -44.86986844 64.20636502 -41.38671875 67.5 C-40.77892578 68.0775 -40.17113281 68.655 -39.54492188 69.25 C-38.29625586 70.42645084 -37.03821717 71.59302489 -35.77148438 72.75 C-32.95451863 75.45525327 -31.21704748 77.35293739 -29.9609375 81.09765625 C-30.01980219 86.97823907 -30.96138338 92.64713831 -31.9375 98.4375 C-32.13279297 99.64599609 -32.32808594 100.85449219 -32.52929688 102.09960938 C-33.01034624 105.06803592 -33.50083143 108.03457602 -34 111 C-32.27255857 110.13627928 -30.54518326 109.2724261 -28.81811523 108.40795898 C-27.35004482 107.6746592 -25.88079335 106.94371939 -24.41040039 106.21508789 C-21.22597636 104.63395121 -18.07031174 103.03881136 -14.95703125 101.3203125 C-13.70986328 100.63582031 -13.70986328 100.63582031 -12.4375 99.9375 C-11.73496094 99.53402344 -11.03242187 99.13054687 -10.30859375 98.71484375 C-4.84984246 97.02457051 -0.64033989 99.03109634 4.20703125 101.50390625 C6.08123695 102.51289102 7.94963926 103.53271984 9.8125 104.5625 C11.69212576 105.58809702 13.57354816 106.61041044 15.45703125 107.62890625 C16.28178955 108.08338135 17.10654785 108.53785645 17.95629883 109.00610352 C19.92100387 110.14578199 19.92100387 110.14578199 22 110 C21.86368164 109.13217896 21.86368164 109.13217896 21.72460938 108.24682617 C21.30784506 105.56163509 20.90389213 102.8746562 20.5 100.1875 C20.35691406 99.27806641 20.21382813 98.36863281 20.06640625 97.43164062 C19.64995792 94.6255721 19.31847871 91.81873082 19 89 C18.85304688 88.08250977 18.70609375 87.16501953 18.5546875 86.21972656 C18.10805396 81.71989369 18.26480459 79.06433469 20.88085938 75.27709961 C23.47042894 72.48297027 26.16670316 69.92113838 29 67.375 C30.87601886 65.61306337 32.75107656 63.85010257 34.625 62.0859375 C35.46289062 61.3232959 36.30078125 60.5606543 37.1640625 59.77490234 C37.76992187 59.18918457 38.37578125 58.6034668 39 58 C39 57.67 39 57.34 39 57 C38.20827393 56.89453857 37.41654785 56.78907715 36.60083008 56.68041992 C33.00302843 56.1944728 29.40786011 55.6911801 25.8125 55.1875 C24.56662109 55.02185547 23.32074219 54.85621094 22.03710938 54.68554688 C20.83505859 54.51474609 19.63300781 54.34394531 18.39453125 54.16796875 C17.28956299 54.01610107 16.18459473 53.8642334 15.04614258 53.70776367 C10.47508843 52.64569058 7.87444548 51.38066972 5.33081055 47.36450195 C4.85426025 46.33284912 4.37770996 45.30119629 3.88671875 44.23828125 C3.36142578 43.12001953 2.83613281 42.00175781 2.29492188 40.84960938 C1.76447266 39.68236328 1.23402344 38.51511719 0.6875 37.3125 C0.13771484 36.13365234 -0.41207031 34.95480469 -0.97851562 33.74023438 C-2.33225166 30.8326448 -3.67205981 27.9194386 -5 25 C-5.33 25 -5.66 25 -6 25 Z " fill="#000000" transform="translate(76,190)"/>
<path d="M0 0 C1.12277344 -0.01933594 2.24554688 -0.03867187 3.40234375 -0.05859375 C11.5102134 -0.01015964 11.5102134 -0.01015964 14.984375 2.97265625 C16.52954363 6.21083371 16.85315454 8.08146711 16.25 11.625 C14.3829009 13.92775556 12.89352259 15.30323871 10.25 16.625 C3.98 16.625 -2.29 16.625 -8.75 16.625 C-8.42 32.795 -8.09 48.965 -7.75 65.625 C8.00917064 65.64754729 23.76832858 65.66597933 39.52751064 65.67681217 C46.84427402 65.68197506 54.1610267 65.68901762 61.4777832 65.70043945 C67.85283018 65.71038651 74.22786941 65.71685348 80.60292393 65.71908849 C83.98048014 65.72039557 87.35801416 65.72348119 90.73556328 65.73073006 C94.50007343 65.73793613 98.26453685 65.73899113 102.02905273 65.73852539 C103.15689682 65.74212067 104.28474091 65.74571594 105.44676208 65.74942017 C106.46624939 65.7480455 107.48573669 65.74667084 108.53611755 65.74525452 C109.42749137 65.74617631 110.31886518 65.7470981 111.23725033 65.74804783 C113.24761536 65.84826506 113.24761536 65.84826506 114.25 64.625 C114.34311889 63.12081261 114.36746028 61.61228644 114.36352539 60.10522461 C114.36344986 59.14430405 114.36337433 58.18338348 114.36329651 57.19334412 C114.35813522 56.148564 114.35297394 55.10378387 114.34765625 54.02734375 C114.3462413 52.96334854 114.34482635 51.89935333 114.34336853 50.80311584 C114.33775064 47.38954917 114.32519511 43.976047 114.3125 40.5625 C114.30748731 38.25455824 114.302924 35.94661545 114.29882812 33.63867188 C114.2877754 27.96742574 114.27101987 22.29621747 114.25 16.625 C113.3465535 16.63166183 112.44310699 16.63832367 111.51228333 16.64518738 C102.9932218 16.70532807 94.47423171 16.75098949 85.9550066 16.78043652 C81.57529955 16.79608454 77.1957681 16.81730696 72.81616211 16.85131836 C68.58864811 16.88394274 64.36130289 16.90185951 60.13367271 16.90963173 C58.521739 16.91516972 56.90981441 16.92598415 55.29795265 16.94219017 C53.03803253 16.96400582 50.77880751 16.96696527 48.51879883 16.96557617 C47.23306473 16.97223801 45.94733063 16.97889984 44.62263489 16.98576355 C41.00376008 16.59866024 39.12585015 15.81266766 36.25 13.625 C34.82337781 10.77175563 34.93966132 8.79045451 35.25 5.625 C36.79484558 2.96522522 36.79484558 2.96522522 39.25 0.625 C41.98760573 0.12406666 44.10953336 -0.0509401 46.8449707 -0.00610352 C47.60484283 -0.01325882 48.36471497 -0.02041412 49.14761353 -0.02778625 C51.6576161 -0.04468298 54.16583425 -0.02526137 56.67578125 -0.00390625 C58.42449593 -0.00473513 60.17321052 -0.00719522 61.92192078 -0.01121521 C65.5880782 -0.0140742 69.25362507 0.0006328 72.91967773 0.02807617 C77.60725566 0.06208385 82.29373645 0.05616707 86.98136616 0.0374136 C90.59408112 0.02681483 94.20654334 0.03580871 97.81923485 0.05079842 C99.5467065 0.05596472 101.27420473 0.05551733 103.00167274 0.04925346 C105.42396806 0.04376932 107.84472583 0.06427898 110.2668457 0.09155273 C111.32773155 0.08176392 111.32773155 0.08176392 112.41004944 0.07177734 C118.81480562 0.19367668 123.051551 2.426551 127.5625 6.9375 C131.67636785 13.48921546 131.55757774 20.19822307 131.55078125 27.7109375 C131.55506638 28.76729401 131.5593515 29.82365051 131.56376648 30.91201782 C131.56949105 33.13925462 131.57002391 35.3665101 131.56567383 37.59375 C131.56251668 40.98209888 131.58598766 44.36957153 131.61132812 47.7578125 C131.61360174 49.92968641 131.61430433 52.10156264 131.61328125 54.2734375 C131.622491 55.27684174 131.63170074 56.28024597 131.64118958 57.3140564 C131.59620007 64.2316746 130.94815335 71.07754898 126.63671875 76.74609375 C126.07597656 77.18050781 125.51523437 77.61492187 124.9375 78.0625 C124.38449219 78.51496094 123.83148438 78.96742188 123.26171875 79.43359375 C116.86472148 83.22210669 110.42905171 82.91539526 103.22119141 82.8996582 C101.4103582 82.9073246 101.4103582 82.9073246 99.5629425 82.91514587 C96.263196 82.92664101 92.96370121 82.92911913 89.66395235 82.92658257 C86.90319638 82.92550991 84.14246336 82.93040386 81.38171232 82.935188 C74.86480884 82.9462692 68.34796302 82.94672862 61.83105469 82.94067383 C55.12248708 82.9346365 48.41412933 82.94694198 41.70559752 82.9682439 C35.93298659 82.98589559 30.16044225 82.99185559 24.38780534 82.98860615 C20.94579189 82.98679859 17.5039281 82.98937631 14.06193924 83.00332069 C10.22040923 83.01830237 6.37914367 83.00889774 2.53759766 82.99731445 C1.40694382 83.00495819 0.27628998 83.01260193 -0.8886261 83.02047729 C-7.8799778 82.97395445 -14.25073715 82.60634539 -19.80859375 77.87109375 C-20.49115234 76.97583984 -20.49115234 76.97583984 -21.1875 76.0625 C-21.89712891 75.16337891 -21.89712891 75.16337891 -22.62109375 74.24609375 C-24.81538186 71.0951264 -24.88964355 68.99802762 -24.92700195 65.18481445 C-24.93983719 64.04635574 -24.95267242 62.90789703 -24.96589661 61.73493958 C-24.97328354 60.49854233 -24.98067047 59.26214508 -24.98828125 57.98828125 C-24.996353 56.72034225 -25.00442474 55.45240326 -25.01274109 54.14604187 C-25.02659426 51.45678036 -25.03760628 48.76764194 -25.04516602 46.07836914 C-25.05620027 42.64631081 -25.09056294 39.21490627 -25.13033772 35.78307819 C-25.16290206 32.49737777 -25.16729219 29.21161844 -25.17578125 25.92578125 C-25.19328934 24.69950516 -25.21079742 23.47322906 -25.22883606 22.20979309 C-25.20909908 14.422994 -24.60870662 9.62732265 -19.05761719 3.86962891 C-12.94136546 -0.10101593 -7.1422575 -0.12471928 0 0 Z " fill="#000000" transform="translate(201.75,355.375)"/>
<path d="M0 0 C0.8867263 -0.00623996 1.7734526 -0.01247993 2.68704939 -0.01890898 C5.66439715 -0.03488985 8.640932 -0.02221476 11.61828613 -0.00964355 C13.75029479 -0.0150624 15.8822997 -0.02218372 18.01429749 -0.03088379 C23.80969197 -0.04914818 29.60480222 -0.04203665 35.4002018 -0.02936745 C41.45886641 -0.01925596 47.51750633 -0.02862797 53.57617188 -0.03491211 C63.75155009 -0.04219391 73.92681225 -0.03258679 84.10217285 -0.0135498 C95.87427492 0.00821987 107.6460999 0.00116888 119.41819525 -0.02085543 C129.51679278 -0.03899421 139.61530679 -0.04157518 149.71391535 -0.03110075 C155.74917806 -0.02485747 161.78431043 -0.02405316 167.81956482 -0.0372467 C173.49296508 -0.04878237 179.16600733 -0.04082103 184.83936882 -0.01766968 C186.92433515 -0.0123704 189.00933149 -0.01391708 191.09428596 -0.02272034 C193.93509335 -0.03361116 196.77474525 -0.01999046 199.61547852 0 C200.44543445 -0.00892289 201.27539039 -0.01784577 202.1304965 -0.02703905 C205.77490683 0.02288884 207.87027386 0.17532693 210.81560516 2.41468048 C212.42164592 4.66772958 212.8755891 5.76881644 212.87023926 8.50793457 C212.89215332 9.16793457 212.91406738 9.82793457 212.93664551 10.50793457 C211.92246324 13.73316018 210.13179406 14.71678335 207.30773926 16.50793457 C204.27426688 16.8936228 201.60782081 17.04889687 198.57788086 17.01586914 C197.25981878 17.02522908 197.25981878 17.02522908 195.91512918 17.03477812 C192.97085644 17.05073237 190.02740877 17.03809429 187.08312988 17.0255127 C184.97230038 17.03093272 182.86147467 17.03805471 180.75065613 17.04675293 C175.01723409 17.06500325 169.28409966 17.05791157 163.55067253 17.04523659 C157.55387464 17.03511785 151.55710158 17.04449914 145.56030273 17.05078125 C135.48925347 17.05806092 125.4183215 17.0484615 115.34729004 17.02941895 C103.69958614 17.00764968 92.05216231 17.01470082 80.4044652 17.03672457 C70.40859086 17.05486939 60.4128009 17.05744135 50.41691542 17.04696989 C44.44479245 17.04072995 38.47280118 17.03991319 32.50068665 17.05311584 C26.8863646 17.06466028 21.27240405 17.05667404 15.65812111 17.03353882 C13.59614983 17.02824424 11.5341482 17.02977824 9.47218895 17.03858948 C6.66024612 17.04949882 3.84946612 17.03583704 1.03759766 17.01586914 C0.21901858 17.02479203 -0.5995605 17.03371491 -1.442945 17.04290819 C-5.24117279 16.990488 -7.45897168 16.6558977 -10.69857025 14.60118866 C-12.69226074 12.50793457 -12.69226074 12.50793457 -13.32116699 10.50793457 C-13.29925293 9.84793457 -13.27733887 9.18793457 -13.25476074 8.50793457 C-13.2560498 7.84793457 -13.25733887 7.18793457 -13.25866699 6.50793457 C-11.37139823 -0.1560765 -5.93216224 -0.06377689 0 0 Z " fill="#000000" transform="translate(239.6922607421875,106.4920654296875)"/>
<path d="M0 0 C1.23659866 -0.0112793 2.47319733 -0.02255859 3.74726868 -0.03417969 C5.11483999 -0.02640273 6.48240899 -0.01821006 7.84997559 -0.00964355 C9.29234016 -0.01506457 10.73469919 -0.02218712 12.17704773 -0.03088379 C16.09238186 -0.04912289 20.00729451 -0.04204744 23.92263603 -0.02936745 C28.01939915 -0.01924272 32.1161261 -0.02863165 36.21289062 -0.03491211 C43.09279868 -0.04219007 49.97253501 -0.03259699 56.85241699 -0.0135498 C64.80735426 0.00821933 72.76188147 0.00116805 80.7168088 -0.02085543 C87.54580588 -0.03900526 94.3746795 -0.04156982 101.20369291 -0.03110075 C105.28278036 -0.02486349 109.36167504 -0.02403646 113.44075012 -0.0372467 C117.27567561 -0.04879866 121.11007224 -0.0407921 124.94494057 -0.01766968 C126.35262994 -0.01237899 127.7603638 -0.01390261 129.16803551 -0.02272034 C131.08881419 -0.03364322 133.00969008 -0.01751941 134.93041992 0 C136.00556602 0.0015081 137.08071213 0.0030162 138.18843842 0.00457001 C141.63850117 0.62998672 142.81604465 1.79494548 144.96520996 4.50793457 C145.53161621 6.50793457 145.53161621 6.50793457 145.52770996 8.50793457 C145.54962402 9.16793457 145.57153809 9.82793457 145.59411621 10.50793457 C144.60809138 13.64361603 142.647339 14.7073195 139.96520996 16.50793457 C137.09941864 17.01129913 137.09941864 17.01129913 133.89282227 17.01586914 C132.67312241 17.02714844 131.45342255 17.03842773 130.19676208 17.05004883 C128.85329961 17.04227238 127.5098395 17.03407976 126.16638184 17.0255127 C124.74519636 17.0309355 123.32401652 17.03805905 121.90284729 17.04675293 C118.04948425 17.06497076 114.19655013 17.05792537 110.3431797 17.04523659 C106.30828328 17.03510083 102.27342328 17.04450386 98.23852539 17.05078125 C91.46294571 17.058056 84.68754049 17.04847456 77.9119873 17.02941895 C70.08144699 17.00765042 62.25132328 17.01470192 54.42079306 17.03672457 C47.69451888 17.05488357 40.96837003 17.05743448 34.24207926 17.04696989 C30.22613097 17.04073767 26.21037842 17.03989175 22.19444275 17.05311584 C18.41859397 17.06468113 14.64328166 17.05663689 10.86749077 17.03353882 C9.48279651 17.02825525 8.098057 17.02975957 6.71338081 17.03858948 C4.82146963 17.04954054 2.92945964 17.03336432 1.03759766 17.01586914 C-0.02057915 17.01436104 -1.07875595 17.01285294 -2.16899872 17.01129913 C-5.75430928 16.38155395 -7.44593503 15.01704443 -10.03479004 12.50793457 C-10.66369629 10.50793457 -10.66369629 10.50793457 -10.59729004 8.50793457 C-10.5985791 7.84793457 -10.59986816 7.18793457 -10.60119629 6.50793457 C-9.0490682 1.02731676 -5.19177602 0.00728248 0 0 Z " fill="#000000" transform="translate(237.0347900390625,247.4920654296875)"/>
<path d="M0 0 C1.12796997 -0.00938095 2.25593994 -0.0187619 3.41809082 -0.02842712 C4.63170288 -0.01719315 5.84531494 -0.00595917 7.09570312 0.00561523 C8.3457312 0.00416 9.59575928 0.00270477 10.88366699 0.00120544 C13.52700757 0.00286573 16.1689099 0.01235586 18.81201172 0.03515625 C22.19496804 0.06354171 25.57702174 0.06080253 28.96004486 0.04806614 C32.19282224 0.03942757 35.42545398 0.05455907 38.65820312 0.06811523 C40.47862122 0.06371178 40.47862122 0.06371178 42.33581543 0.05921936 C43.4637854 0.07190353 44.59175537 0.08458771 45.75390625 0.09765625 C46.74555786 0.10305923 47.73720947 0.10846222 48.75891113 0.11402893 C51.81099785 0.56598239 53.17494191 1.36769874 55.37695312 3.50170898 C56.55102947 7.10220977 56.70454988 8.78099611 55.12695312 12.25170898 C53.37695312 14.50170898 53.37695312 14.50170898 50.37695312 16.50170898 C47.99978638 16.7624054 47.99978638 16.7624054 45.15869141 16.77636719 C44.09393585 16.7858992 43.0291803 16.79543121 41.93215942 16.80525208 C40.78214447 16.80434067 39.63212952 16.80342926 38.44726562 16.80249023 C37.26478241 16.80677536 36.08229919 16.81106049 34.86398315 16.81547546 C32.36066326 16.82122285 29.85732665 16.82171604 27.35400391 16.81738281 C23.52412364 16.81422725 19.69501884 16.83766288 15.86523438 16.86303711 C13.43424577 16.86531048 11.00325508 16.86601342 8.57226562 16.86499023 C7.42629913 16.87419998 6.28033264 16.88340973 5.09963989 16.89289856 C3.49305008 16.88355537 3.49305008 16.88355537 1.85400391 16.87402344 C0.91485138 16.87465286 -0.02430115 16.87528229 -0.99191284 16.87593079 C-4.44338563 16.38503357 -7.14259182 14.98216404 -9.62304688 12.50170898 C-10.2176769 5.24722264 -10.2176769 5.24722264 -7.94787598 2.401474 C-5.07173573 0.05119775 -3.6762625 0.00061602 0 0 Z " fill="#000000" transform="translate(231.623046875,388.498291015625)"/>
</svg>
