<?xml version="1.0" encoding="UTF-8"?>
<svg version="1.1" xmlns="http://www.w3.org/2000/svg" width="512" height="512">
<path d="M0 0 C1.02040375 0.00215515 2.0408075 0.0043103 3.09213257 0.00653076 C17.71960524 0.05616648 32.07013838 0.30330288 46.4375 3.3125 C47.41235352 3.51117676 48.38720703 3.70985352 49.39160156 3.91455078 C97.7734774 14.03517194 141.76178269 35.9516877 177.4375 70.3125 C178.4265332 71.26068604 178.4265332 71.26068604 179.43554688 72.22802734 C188.92380305 81.37247479 197.6637044 90.66984009 205.4375 101.3125 C206.29556152 102.46355017 207.15363451 103.61459177 208.01171875 104.765625 C214.04986829 112.95680614 219.40845521 121.47054105 224.4375 130.3125 C224.80198242 130.94430176 225.16646484 131.57610352 225.54199219 132.22705078 C247.14784998 169.97532572 256.91448095 212.74189997 256.75 255.9375 C256.74784485 256.95540619 256.7456897 257.97331238 256.74346924 259.02206421 C256.69379854 273.63113523 256.44290191 287.96325853 253.4375 302.3125 C253.13948486 303.77478027 253.13948486 303.77478027 252.83544922 305.26660156 C242.71482806 353.6484774 220.7983123 397.63678269 186.4375 433.3125 C185.80537598 433.97185547 185.17325195 434.63121094 184.52197266 435.31054688 C175.37752521 444.79880305 166.08015991 453.5387044 155.4375 461.3125 C154.28644983 462.17056152 153.13540823 463.02863451 151.984375 463.88671875 C143.79474019 469.92427396 135.29211724 475.30707302 126.4375 480.3125 C125.73028809 480.7146875 125.02307617 481.116875 124.29443359 481.53125 C98.3604405 496.13231055 69.77266936 505.49449681 40.4375 510.3125 C39.73141602 510.42964355 39.02533203 510.54678711 38.29785156 510.66748047 C25.68246777 512.66893103 13.19338067 512.46526504 0.4375 512.3125 C0.4375 498.1225 0.4375 483.9325 0.4375 469.3125 C5.0575 468.920625 9.6775 468.52875 14.4375 468.125 C65.05157272 463.38283805 111.28037399 444.26779901 148.01025391 408.69287109 C149.35336018 407.39387642 150.71327542 406.11232609 152.07421875 404.83203125 C158.94657974 398.21859752 164.75704215 390.94655446 170.4375 383.3125 C171.18773437 382.30703125 171.93796875 381.3015625 172.7109375 380.265625 C205.52740898 334.53581276 218.23308971 278.06756134 209.98095703 222.59716797 C206.2647665 200.1364189 199.31181918 178.24472641 188.45849609 158.20263672 C187.42672565 156.2925538 186.42611671 154.3681036 185.42578125 152.44140625 C177.10419123 136.73347764 166.3246386 122.4671106 153.88330078 109.79345703 C152.44180716 108.3169119 151.03041156 106.81581485 149.62109375 105.30859375 C133.11691028 87.91879235 112.18536547 74.21941324 90.4375 64.3125 C89.70305664 63.97621582 88.96861328 63.63993164 88.21191406 63.29345703 C37.17010132 40.20208021 -21.15577189 37.76648805 -73.7734375 57.44921875 C-75.37164658 58.0655237 -76.96805862 58.68651217 -78.5625 59.3125 C-79.30918945 59.60463379 -80.05587891 59.89676758 -80.82519531 60.19775391 C-105.93134522 70.22581687 -128.18384247 85.59167525 -147.5625 104.3125 C-148.94501953 105.61767578 -148.94501953 105.61767578 -150.35546875 106.94921875 C-157.5164866 113.86783261 -163.63945674 121.32670535 -169.5625 129.3125 C-170.31144531 130.31667969 -171.06039062 131.32085937 -171.83203125 132.35546875 C-198.81772218 169.94094459 -208.71018927 210.895784 -212.5625 256.3125 C-226.7525 256.3125 -240.9425 256.3125 -255.5625 256.3125 C-257.01051427 199.83994363 -238.10267288 144.90147919 -203.5625 100.3125 C-202.87671875 99.41402344 -202.1909375 98.51554687 -201.484375 97.58984375 C-196.21442525 90.83102608 -190.47095326 84.51312952 -184.5625 78.3125 C-183.99080078 77.71211914 -183.41910156 77.11173828 -182.83007812 76.49316406 C-174.8218274 68.14441183 -166.59761118 60.49913949 -157.29980469 53.60986328 C-155.57874144 52.32462858 -153.886112 51.0082984 -152.1953125 49.68359375 C-108.89637984 16.23366951 -54.29187989 -0.20584495 0 0 Z " fill="#000000" transform="translate(255.5625,-0.31250000000000006)"/>
<path d="M0 0 C70.62 0 141.24 0 214 0 C214 14.19 214 28.38 214 43 C143.38 43 72.76 43 0 43 C0 28.81 0 14.62 0 0 Z " fill="#000000" transform="translate(0,469)"/>
<path d="M0 0 C14.52 0 29.04 0 44 0 C43.41089844 6.41308594 42.82179688 12.82617188 42.21484375 19.43359375 C41.62016674 28.09712357 41.22215941 36.75848649 40.9375 45.4375 C40.90058422 46.55267754 40.86366844 47.66785507 40.825634 48.81682587 C40.03071934 77.13220684 41.58807385 99.95355127 61.54573059 121.33940125 C65.38907688 125.28787481 69.42133258 128.99238551 73.5625 132.625 C74.24323956 133.2227058 74.92397911 133.82041161 75.62534714 134.43622971 C84.06882877 141.7772466 92.82354169 148.60013838 102 155 C98.16439367 159.58664344 94.19361444 163.94654556 89.9453125 168.15234375 C89.39890106 168.69734024 88.85248962 169.24233673 88.28952026 169.80384827 C86.57037942 171.51746118 84.84776796 173.22753444 83.125 174.9375 C81.94768362 176.10979204 80.77059826 177.28231614 79.59375 178.45507812 C76.73182511 181.30606982 73.86678543 184.15389615 71 187 C70.14784912 186.22599854 69.29569824 185.45199707 68.41772461 184.65454102 C64.88964596 181.61999322 61.14326673 178.95882559 57.33032227 176.30053711 C48.35145516 169.97556475 39.84993879 163.14225334 31.5625 155.9375 C30.81208435 155.28584869 30.0616687 154.63419739 29.28851318 153.96279907 C8.82996042 135.89292446 -2.27377328 118.38004905 -4.03672981 90.73205757 C-4.6389479 78.63947844 -4.49436772 66.59310588 -4 54.5 C-3.95970492 53.49196957 -3.95970492 53.49196957 -3.91859579 52.46357489 C-3.2024209 34.91680776 -1.82405666 17.46534255 0 0 Z " fill="#000000" transform="translate(234,149)"/>
<path d="M0 0 C56.43 0 112.86 0 171 0 C171 14.19 171 28.38 171 43 C114.57 43 58.14 43 0 43 C0 28.81 0 14.62 0 0 Z " fill="#000000" transform="translate(0,384)"/>
<path d="M0 0 C42.24 0 84.48 0 128 0 C128 14.52 128 29.04 128 44 C85.76 44 43.52 44 0 44 C0 29.48 0 14.96 0 0 Z " fill="#000000" transform="translate(0,298)"/>
</svg>
